<svg xmlns="http://www.w3.org/2000/svg" width="48" height="48" viewBox="0 0 48 48" fill="none"><path d="M25.92 9.10656H22.08C21.6981 9.10656 21.3318 8.95485 21.0618 8.6848C20.7917 8.41474 20.64 8.04847 20.64 7.66656C20.64 7.28465 20.7917 6.91838 21.0618 6.64833C21.3318 6.37828 21.6981 6.22656 22.08 6.22656H25.92C26.3019 6.22656 26.6682 6.37828 26.9382 6.64833C27.2083 6.91838 27.36 7.28465 27.36 7.66656C27.36 8.04847 27.2083 8.41474 26.9382 8.6848C26.6682 8.95485 26.3019 9.10656 25.92 9.10656Z" fill="white"></path><path d="M24 30.72C22.5182 30.7207 21.0776 30.2316 19.9026 29.3288C18.7275 28.4259 17.8838 27.16 17.5027 25.728C17.3583 25.1632 17.2835 24.5829 17.28 24C17.2801 22.987 17.5093 21.9871 17.9503 21.0751C18.3913 20.1631 19.0328 19.3626 19.8268 18.7335C20.6208 18.1044 21.5467 17.663 22.5354 17.4422C23.524 17.2214 24.5498 17.227 25.536 17.4585C25.6592 17.4866 25.7755 17.5387 25.8785 17.6119C25.9815 17.685 26.069 17.7777 26.136 17.8847C26.2031 17.9917 26.2484 18.1109 26.2693 18.2355C26.2902 18.36 26.2864 18.4875 26.2579 18.6105C26.2315 18.7346 26.1805 18.852 26.1078 18.9559C26.0351 19.0598 25.9422 19.1481 25.8348 19.2154C25.7273 19.2827 25.6075 19.3278 25.4823 19.3479C25.3571 19.368 25.2291 19.3628 25.1059 19.3325C24.4011 19.1629 23.667 19.1557 22.9589 19.3113C22.2509 19.467 21.5874 19.7814 21.0187 20.2309C20.4499 20.6804 19.9907 21.2533 19.6756 21.9062C19.3606 22.5591 19.198 23.275 19.2 24C19.2033 24.4211 19.2581 24.8402 19.3632 25.248C19.6378 26.2676 20.2409 27.1683 21.0792 27.8104C21.9174 28.4526 22.9441 28.8004 24 28.8C24.499 28.8075 24.9953 28.7249 25.465 28.5561C26.2863 28.2968 27.0227 27.8213 27.597 27.1795C28.1712 26.5376 28.5623 25.7531 28.729 24.9081C28.7473 24.7791 28.7917 24.6552 28.8595 24.5439C28.9272 24.4326 29.0169 24.3363 29.1231 24.2608C29.2293 24.1853 29.3498 24.1322 29.4771 24.1047C29.6045 24.0773 29.7361 24.076 29.864 24.1011C29.9919 24.1261 30.1133 24.177 30.2209 24.2505C30.3285 24.3239 30.42 24.4186 30.4899 24.5286C30.5597 24.6386 30.6064 24.7616 30.6272 24.8903C30.6479 25.0189 30.6423 25.1504 30.6106 25.2768C30.3833 26.4504 29.8453 27.5416 29.0527 28.4365C28.2601 29.3315 27.2419 29.9974 26.1043 30.3648C25.43 30.609 24.7171 30.7293 24 30.72Z" fill="white"></path><path d="M23.2512 27.5097H23.1687C23.0195 27.4966 22.8756 27.4488 22.7482 27.3701C22.6209 27.2915 22.5137 27.1841 22.4352 27.0566L20.6381 24.1363C20.572 24.0289 20.5278 23.9095 20.5079 23.785C20.4879 23.6605 20.4927 23.5333 20.522 23.4106C20.5512 23.2879 20.6043 23.1722 20.6783 23.0701C20.7522 22.968 20.8456 22.8814 20.953 22.8153C21.0604 22.7493 21.1798 22.705 21.3043 22.6851C21.4288 22.6652 21.556 22.6699 21.6787 22.6992C21.8013 22.7284 21.917 22.7815 22.0192 22.8555C22.1213 22.9294 22.2079 23.0228 22.2739 23.1302L23.3914 24.9465L29.2109 18.3513C29.3794 18.1604 29.617 18.0442 29.8712 18.0284C30.1254 18.0125 30.3755 18.0983 30.5664 18.2668C30.7574 18.4354 30.8736 18.6729 30.8894 18.9271C30.9052 19.1813 30.8194 19.4314 30.6509 19.6224L23.9712 27.1891C23.8807 27.2904 23.7698 27.3714 23.6456 27.4267C23.5215 27.482 23.3871 27.5103 23.2512 27.5097Z" fill="white"></path><path d="M35.52 34.56C35.2671 34.5546 35.026 34.4517 34.8472 34.2728C34.6683 34.094 34.5654 33.8529 34.56 33.6C34.5557 33.474 34.5821 33.3488 34.6368 33.2352C34.6773 33.1156 34.7497 33.0094 34.8461 32.928C35.0256 32.7521 35.2668 32.6536 35.5181 32.6536C35.7694 32.6536 36.0107 32.7521 36.1901 32.928C36.2865 33.0099 36.3593 33.1159 36.4013 33.2352C36.456 33.3488 36.4824 33.474 36.4781 33.6C36.4718 33.8526 36.3686 34.0931 36.1899 34.2718C36.0112 34.4505 35.7726 34.5537 35.52 34.56Z" fill="white"></path><path d="M32.64 42.24H15.36C14.3416 42.24 13.3649 41.8354 12.6447 41.1153C11.9246 40.3952 11.52 39.4184 11.52 38.4V9.60001C11.52 8.58158 11.9246 7.60486 12.6447 6.88472C13.3649 6.16458 14.3416 5.76001 15.36 5.76001H32.64C33.6585 5.76001 34.6352 6.16458 35.3553 6.88472C36.0754 7.60486 36.48 8.58158 36.48 9.60001V29.76C36.48 30.0146 36.3789 30.2588 36.1988 30.4388C36.0188 30.6189 35.7746 30.72 35.52 30.72C35.2654 30.72 35.0212 30.6189 34.8412 30.4388C34.6612 30.2588 34.56 30.0146 34.56 29.76V9.60001C34.56 9.09079 34.3577 8.60243 33.9977 8.24237C33.6376 7.8823 33.1492 7.68001 32.64 7.68001H15.36C14.8508 7.68001 14.3624 7.8823 14.0024 8.24237C13.6423 8.60243 13.44 9.09079 13.44 9.60001V38.4C13.44 38.9092 13.6423 39.3976 14.0024 39.7577C14.3624 40.1177 14.8508 40.32 15.36 40.32H32.64C33.1492 40.32 33.6376 40.1177 33.9977 39.7577C34.3577 39.3976 34.56 38.9092 34.56 38.4V37.44C34.56 37.1854 34.6612 36.9412 34.8412 36.7612C35.0212 36.5812 35.2654 36.48 35.52 36.48C35.7746 36.48 36.0188 36.5812 36.1988 36.7612C36.3789 36.9412 36.48 37.1854 36.48 37.44V38.4C36.48 39.4184 36.0754 40.3952 35.3553 41.1153C34.6352 41.8354 33.6585 42.24 32.64 42.24Z" fill="white"></path></svg>