<svg xmlns="http://www.w3.org/2000/svg" width="34" height="44" viewBox="0 0 34 44" fill="none"><path d="M3.06664 44H30.9333C32.1483 44 33.1333 43.015 33.1333 41.8V8.24487C33.1322 7.83884 33.0466 7.43748 32.8818 7.0664C32.873 7.04367 32.859 7.02533 32.848 7.00333C32.7066 6.69433 32.5123 6.4124 32.2738 6.17027L26.963 0.859467C26.7122 0.613486 26.4191 0.414751 26.0977 0.2728L26.0801 0.2618C25.7059 0.09195 25.3001 0.0027506 24.8892 0H3.06664C1.85161 0 0.866638 0.984974 0.866638 2.2V41.8C0.866638 43.015 1.85161 44 3.06664 44ZM30.6297 6.6H27.2666C26.8616 6.6 26.5333 6.27168 26.5333 5.86667V2.5036L30.6297 6.6ZM2.33331 2.2C2.33331 1.79499 2.66163 1.46667 3.06664 1.46667H24.8892C24.9486 1.4689 25.0079 1.47477 25.0666 1.48427V5.86667C25.0666 7.08169 26.0516 8.06667 27.2666 8.06667H31.649C31.6586 8.12564 31.6645 8.18516 31.6666 8.24487V41.8C31.6666 42.205 31.3383 42.5333 30.9333 42.5333H3.06664C2.66163 42.5333 2.33331 42.205 2.33331 41.8V2.2Z" fill="#292929"></path><path d="M14.8 32.2667V33.0001C14.8 34.2151 15.7849 35.2001 17 35.2001C18.215 35.2001 19.2 34.2151 19.2 33.0001V32.2667C20.4626 31.3198 20.9776 29.6712 20.4785 28.1739C19.9794 26.6767 18.5782 25.6667 17 25.6667C15.4217 25.6667 14.0206 26.6767 13.5215 28.1739C13.0224 29.6712 13.5374 31.3198 14.8 32.2667ZM17 27.1334C17.9931 27.1363 18.8612 27.8043 19.1185 28.7635C19.3757 29.7228 18.9584 30.7355 18.1 31.2349C17.8729 31.3661 17.733 31.6085 17.7333 31.8707V33.0001C17.7333 33.4051 17.405 33.7334 17 33.7334C16.595 33.7334 16.2666 33.4051 16.2666 33.0001V31.8707C16.2669 31.6085 16.1271 31.3661 15.9 31.2349C15.0415 30.7355 14.6242 29.7228 14.8815 28.7635C15.1387 27.8043 16.0068 27.1363 17 27.1334Z" fill="#292929"></path><path d="M5.26666 8.79992H21.4C21.805 8.79992 22.1333 8.47159 22.1333 8.06659C22.1333 7.66158 21.805 7.33325 21.4 7.33325H5.26666C4.86165 7.33325 4.53333 7.66158 4.53333 8.06659C4.53333 8.47159 4.86165 8.79992 5.26666 8.79992Z" fill="#292929"></path><path d="M5.26666 36.6666C4.86165 36.6666 4.53333 36.995 4.53333 37.4C4.53333 37.805 4.86165 38.1333 5.26666 38.1333H7.60159C7.91125 39.0092 8.73768 39.5961 9.66666 39.6H24.3333C25.2623 39.5961 26.0887 39.0092 26.3984 38.1333H28.7333C29.1383 38.1333 29.4667 37.805 29.4667 37.4C29.4667 36.995 29.1383 36.6666 28.7333 36.6666H26.5333V34.4666H28.7333C29.1383 34.4666 29.4667 34.1383 29.4667 33.7333C29.4667 33.3283 29.1383 33 28.7333 33H26.5333V30.8H28.7333C29.1383 30.8 29.4667 30.4716 29.4667 30.0666C29.4667 29.6616 29.1383 29.3333 28.7333 29.3333H26.5333V27.1333H28.7333C29.1383 27.1333 29.4667 26.805 29.4667 26.4C29.4667 25.995 29.1383 25.6666 28.7333 25.6666H26.5333V23.4666H28.7333C29.1383 23.4666 29.4667 23.1383 29.4667 22.7333C29.4667 22.3283 29.1383 22 28.7333 22H25.9613C25.5476 21.5353 24.9556 21.2686 24.3333 21.2666V19.8H28.7333C29.1383 19.8 29.4667 19.4716 29.4667 19.0666C29.4667 18.6616 29.1383 18.3333 28.7333 18.3333H24.3333V17.6C24.3339 17.1074 24.2848 16.616 24.1867 16.1333H28.7333C29.1383 16.1333 29.4667 15.805 29.4667 15.4C29.4667 14.995 29.1383 14.6666 28.7333 14.6666H23.7166C23.3581 13.849 22.8536 13.1035 22.2279 12.4666H28.7333C29.1383 12.4666 29.4667 12.1383 29.4667 11.7333C29.4667 11.3283 29.1383 11 28.7333 11H20.1753C18.1714 10.0221 15.8286 10.0221 13.8247 11H5.26666C4.86165 11 4.53333 11.3283 4.53333 11.7333C4.53333 12.1383 4.86165 12.4666 5.26666 12.4666H11.7721C11.1463 13.1035 10.6419 13.849 10.2834 14.6666H5.26666C4.86165 14.6666 4.53333 14.995 4.53333 15.4C4.53333 15.805 4.86165 16.1333 5.26666 16.1333H9.81333C9.71522 16.616 9.66608 17.1074 9.66666 17.6V18.3333H5.26666C4.86165 18.3333 4.53333 18.6616 4.53333 19.0666C4.53333 19.4716 4.86165 19.8 5.26666 19.8H9.66666V21.2666C9.04443 21.2686 8.45243 21.5353 8.03866 22H5.26666C4.86165 22 4.53333 22.3283 4.53333 22.7333C4.53333 23.1383 4.86165 23.4666 5.26666 23.4666H7.46666V25.6666H5.26666C4.86165 25.6666 4.53333 25.995 4.53333 26.4C4.53333 26.805 4.86165 27.1333 5.26666 27.1333H7.46666V29.3333H5.26666C4.86165 29.3333 4.53333 29.6616 4.53333 30.0666C4.53333 30.4716 4.86165 30.8 5.26666 30.8H7.46666V33H5.26666C4.86165 33 4.53333 33.3283 4.53333 33.7333C4.53333 34.1383 4.86165 34.4666 5.26666 34.4666H7.46666V36.6666H5.26666ZM11.1333 17.6C11.1333 14.3599 13.7599 11.7333 17 11.7333C20.2401 11.7333 22.8667 14.3599 22.8667 17.6V21.2666H21.4V17.6C21.4 15.1699 19.43 13.2 17 13.2C14.5699 13.2 12.6 15.1699 12.6 17.6V21.2666H11.1333V17.6ZM14.0667 21.2666V19.8H19.9333V21.2666H14.0667ZM19.9333 18.3333H14.0667V17.6C14.0667 15.9799 15.38 14.6666 17 14.6666C18.62 14.6666 19.9333 15.9799 19.9333 17.6V18.3333ZM9.66666 22.7333H24.3333C24.7383 22.7333 25.0667 23.0616 25.0667 23.4666V37.4C25.0667 37.805 24.7383 38.1333 24.3333 38.1333H9.66666C9.26165 38.1333 8.93333 37.805 8.93333 37.4V23.4666C8.93333 23.0616 9.26165 22.7333 9.66666 22.7333Z" fill="#519FDF"></path></svg>