<svg xmlns="http://www.w3.org/2000/svg" width="44" height="44" viewBox="0 0 44 44" fill="none"><path d="M18.5263 7.5625H19.8986V8.9375H18.5263V7.5625Z" fill="#292929"></path><path d="M36.3665 24.0625H37.7388V25.4375H36.3665V24.0625Z" fill="#292929"></path><path d="M24.0156 35.0625H25.3879V36.4375H24.0156V35.0625Z" fill="#292929"></path><path d="M18.5263 37.125H19.8986V38.5H18.5263V37.125Z" fill="#292929"></path><path d="M7.54776 21.3125H8.92008V22.6875H7.54776V21.3125Z" fill="#292929"></path><path d="M24.0156 7.5625H25.3879V8.9375H24.0156V7.5625Z" fill="#292929"></path><path d="M34.9941 18.5625H36.3665V19.9375H34.9941V18.5625Z" fill="#292929"></path><path d="M31.5634 11.6875H32.9357V13.0625H31.5634V11.6875Z" fill="#292929"></path><path d="M10.9785 11.6875H12.3509V13.0625H10.9785V11.6875Z" fill="#292929"></path><path d="M31.5634 30.9375H32.9357V32.3125H31.5634V30.9375Z" fill="#292929"></path><path d="M10.9785 30.9375H12.3509V32.3125H10.9785V30.9375Z" fill="#292929"></path><path d="M21.8762 21.3125C21.3963 21.328 20.937 21.5114 20.578 21.8309C20.2191 22.1504 19.9832 22.5858 19.9112 23.0614C19.8393 23.5371 19.936 24.0229 20.1843 24.4346C20.4327 24.8463 20.8172 25.1578 21.271 25.3151V26.8125H22.6433V25.3103C23.1082 25.1471 23.499 24.822 23.7446 24.3942C23.9902 23.9664 24.0742 23.4644 23.9812 22.9797C23.8882 22.4951 23.6244 22.0601 23.238 21.754C22.8516 21.4479 22.3683 21.2912 21.8762 21.3125ZM22.6433 23.3481C22.6469 23.4384 22.6327 23.5285 22.6015 23.6132C22.5703 23.6979 22.5228 23.7757 22.4616 23.842C22.4005 23.9084 22.3268 23.962 22.245 23.9998C22.1631 24.0376 22.0746 24.0589 21.9846 24.0625C21.8944 24.066 21.8044 24.0516 21.7197 24.0203C21.635 23.9889 21.5574 23.9411 21.4912 23.8796C21.3915 23.7873 21.3213 23.6675 21.2895 23.5353C21.2578 23.403 21.2659 23.2643 21.3128 23.1367C21.3598 23.0091 21.4434 22.8983 21.5532 22.8183C21.663 22.7383 21.794 22.6928 21.9297 22.6875H21.9571C22.1344 22.6873 22.3049 22.756 22.4329 22.879C22.5608 23.002 22.6362 23.1706 22.6433 23.3481Z" fill="#519FDF"></path><path d="M25.3879 19.3765V18.5625C25.3879 17.6508 25.0265 16.7765 24.3831 16.1318C23.7397 15.4872 22.867 15.125 21.9571 15.125C21.0472 15.125 20.1746 15.4872 19.5312 16.1318C18.8878 16.7765 18.5263 17.6508 18.5263 18.5625V19.3765C18.1263 19.5182 17.7798 19.7802 17.5342 20.1268C17.2885 20.4733 17.1558 20.8874 17.154 21.3125V26.8125C17.154 27.3595 17.3709 27.8841 17.7569 28.2709C18.1429 28.6577 18.6665 28.875 19.2125 28.875H24.7017C25.2477 28.875 25.7713 28.6577 26.1573 28.2709C26.5434 27.8841 26.7602 27.3595 26.7602 26.8125V21.3125C26.7585 20.8874 26.6257 20.4733 26.38 20.1268C26.1344 19.7802 25.7879 19.5182 25.3879 19.3765ZM19.8986 18.5625C19.8986 18.0155 20.1155 17.4909 20.5015 17.1041C20.8876 16.7173 21.4112 16.5 21.9571 16.5C22.5031 16.5 23.0266 16.7173 23.4127 17.1041C23.7987 17.4909 24.0156 18.0155 24.0156 18.5625V19.25H19.8986V18.5625ZM25.3879 26.8125C25.3879 26.9948 25.3156 27.1697 25.1869 27.2986C25.0583 27.4276 24.8837 27.5 24.7017 27.5H19.2125C19.0305 27.5 18.856 27.4276 18.7273 27.2986C18.5986 27.1697 18.5263 26.9948 18.5263 26.8125V21.3125C18.5263 21.1302 18.5986 20.9553 18.7273 20.8264C18.856 20.6974 19.0305 20.625 19.2125 20.625H24.7017C24.8837 20.625 25.0583 20.6974 25.1869 20.8264C25.3156 20.9553 25.3879 21.1302 25.3879 21.3125V26.8125Z" fill="#519FDF"></path><path d="M40.4834 28.1875C40.1777 28.1887 39.8763 28.2592 39.6017 28.3937L38.0235 26.8125H31.5633V25.4375H34.9941V24.0625H31.5633V22.6875H35.1561L39.0583 20.7323C39.4003 21.0605 39.8449 21.2602 40.317 21.2977C40.7891 21.3352 41.2596 21.2081 41.649 20.9379C42.0383 20.6678 42.3225 20.2711 42.4535 19.8152C42.5845 19.3592 42.5543 18.8719 42.3679 18.4357C42.1815 17.9995 41.8504 17.6412 41.4307 17.4214C41.011 17.2017 40.5284 17.134 40.0646 17.2298C39.6007 17.3256 39.1842 17.579 38.8854 17.9471C38.5866 18.3152 38.424 18.7755 38.4249 19.25C38.4282 19.3336 38.4366 19.417 38.4503 19.4996L34.8322 21.3125H31.5633V19.9375H33.6218V18.5625H31.5633V17.1875H34.5921L36.8564 14.9188C37.1312 15.0534 37.4329 15.1239 37.7388 15.125C38.1459 15.125 38.5439 15.004 38.8824 14.7774C39.2209 14.5508 39.4848 14.2287 39.6406 13.8518C39.7964 13.4749 39.8371 13.0602 39.7577 12.6601C39.6783 12.26 39.4822 11.8925 39.1944 11.6041C38.9065 11.3156 38.5397 11.1192 38.1404 11.0396C37.7411 10.96 37.3272 11.0009 36.951 11.157C36.5749 11.3131 36.2534 11.5775 36.0272 11.9166C35.801 12.2558 35.6803 12.6546 35.6803 13.0625C35.6815 13.3688 35.7519 13.6708 35.8862 13.9459L34.0239 15.8125H31.5633C31.5623 14.9012 31.2004 14.0274 30.5573 13.383C29.9141 12.7386 29.0421 12.3761 28.1325 12.375V10.5971L32.054 6.66875C32.3286 6.8033 32.63 6.87381 32.9357 6.875C33.3428 6.875 33.7408 6.75404 34.0793 6.52741C34.4178 6.30078 34.6817 5.97866 34.8375 5.60179C34.9933 5.22491 35.034 4.81021 34.9546 4.41013C34.8752 4.01004 34.6791 3.64254 34.3912 3.35409C34.1033 3.06565 33.7366 2.86921 33.3373 2.78963C32.938 2.71005 32.5241 2.75089 32.1479 2.907C31.7718 3.06311 31.4503 3.32746 31.2241 3.66664C30.9979 4.00581 30.8772 4.40458 30.8772 4.8125C30.8784 5.11877 30.9487 5.4208 31.083 5.69594L26.7602 10.0272V12.375H25.3879V10.3125H24.0156V12.375H22.6433V7.436C23.1011 7.27382 23.4869 6.9547 23.7326 6.53505C23.9783 6.11539 24.0681 5.62221 23.9859 5.14268C23.9038 4.66316 23.6552 4.22815 23.2839 3.91455C22.9127 3.60096 22.4427 3.42896 21.9571 3.42896C21.4715 3.42896 21.0016 3.60096 20.6303 3.91455C20.2591 4.22815 20.0104 4.66316 19.9283 5.14268C19.8462 5.62221 19.9359 6.11539 20.1816 6.53505C20.4273 6.9547 20.8131 7.27382 21.271 7.436V12.375H19.8986V10.3125H18.5263V12.375H17.154V7.27788L14.2035 4.32163C14.3379 4.04628 14.4083 3.74401 14.4094 3.4375C14.4094 3.02958 14.2886 2.63081 14.0624 2.29164C13.8362 1.95246 13.5148 1.68811 13.1386 1.532C12.7625 1.37589 12.3486 1.33505 11.9493 1.41463C11.55 1.49421 11.1832 1.69065 10.8953 1.97909C10.6074 2.26754 10.4114 2.63504 10.3319 3.03513C10.2525 3.43521 10.2933 3.84991 10.4491 4.22679C10.6049 4.60366 10.8687 4.92578 11.2072 5.15241C11.5458 5.37904 11.9437 5.5 12.3509 5.5C12.6565 5.49882 12.958 5.4283 13.2326 5.29375L15.7817 7.84712V12.375C14.8721 12.3761 14.0001 12.7386 13.3569 13.383C12.7138 14.0274 12.352 14.9012 12.3509 15.8125H9.8903L8.02807 13.9459C8.16235 13.6708 8.23273 13.3688 8.23391 13.0625C8.23391 12.6546 8.11319 12.2558 7.887 11.9166C7.66081 11.5775 7.33932 11.3131 6.96318 11.157C6.58704 11.0009 6.17315 10.96 5.77385 11.0396C5.37454 11.1192 5.00775 11.3156 4.71987 11.6041C4.43199 11.8925 4.23593 12.26 4.15651 12.6601C4.07708 13.0602 4.11785 13.4749 4.27365 13.8518C4.42945 14.2287 4.69329 14.5508 5.0318 14.7774C5.37032 15.004 5.76831 15.125 6.17543 15.125C6.48111 15.1238 6.78255 15.0533 7.05715 14.9188L9.32148 17.1875H12.3509V18.5625H7.98552L4.39142 21.5627C4.09687 21.4008 3.76676 21.3148 3.43079 21.3125C3.02367 21.3125 2.62568 21.4335 2.28717 21.6601C1.94865 21.8867 1.68481 22.2088 1.52901 22.5857C1.37321 22.9626 1.33244 23.3773 1.41187 23.7774C1.4913 24.1775 1.68735 24.545 1.97523 24.8334C2.26311 25.1219 2.6299 25.3183 3.02921 25.3979C3.42851 25.4774 3.8424 25.4366 4.21854 25.2805C4.59468 25.1244 4.91617 24.86 5.14236 24.5209C5.36855 24.1817 5.48927 23.7829 5.48927 23.375C5.48974 23.0991 5.43442 22.8259 5.32665 22.572L8.4823 19.9375H12.3509V21.3125H10.2924V22.6875H12.3509V24.0625H6.17543V25.4375H12.3509V26.8125H8.55298L5.78775 30.9677C5.68914 30.9503 5.58937 30.9402 5.48927 30.9375C5.01191 30.9331 4.5476 31.0936 4.17444 31.3919C3.80127 31.6902 3.54201 32.1081 3.44026 32.5754C3.33851 33.0428 3.40047 33.5309 3.61574 33.9579C3.831 34.3848 4.18642 34.7244 4.62224 34.9196C5.05805 35.1149 5.54766 35.1537 6.00873 35.0298C6.4698 34.9058 6.87419 34.6265 7.1539 34.2389C7.43361 33.8513 7.57157 33.379 7.54457 32.9015C7.51758 32.4239 7.32728 31.9702 7.00569 31.6167L9.28717 28.1875H12.3509C12.352 29.0988 12.7138 29.9726 13.3569 30.617C14.0001 31.2614 14.8721 31.6239 15.7817 31.625V36.1529L13.2326 38.7062C12.958 38.5717 12.6565 38.5012 12.3509 38.5C11.9437 38.5 11.5458 38.621 11.2072 38.8476C10.8687 39.0742 10.6049 39.3963 10.4491 39.7732C10.2933 40.1501 10.2525 40.5648 10.3319 40.9649C10.4114 41.365 10.6074 41.7325 10.8953 42.0209C11.1832 42.3093 11.55 42.5058 11.9493 42.5854C12.3486 42.6649 12.7625 42.6241 13.1386 42.468C13.5148 42.3119 13.8362 42.0475 14.0624 41.7084C14.2886 41.3692 14.4094 40.9704 14.4094 40.5625C14.4082 40.2562 14.3378 39.9542 14.2035 39.6791L17.154 36.7228V31.625H18.5263V35.75H19.8986V31.625H21.271V37.5059L25.4387 40.1184C25.3267 40.6 25.3885 41.1059 25.6133 41.5462C25.8381 41.9865 26.2112 42.3329 26.6666 42.5238C27.1219 42.7147 27.63 42.7379 28.1008 42.5892C28.5716 42.4405 28.9746 42.1296 29.2383 41.7115C29.5021 41.2935 29.6096 40.7953 29.5417 40.3055C29.4738 39.8156 29.235 39.3656 28.8675 39.0354C28.5001 38.7052 28.0278 38.516 27.5344 38.5014C27.041 38.4868 26.5584 38.6478 26.1722 38.9558L22.6433 36.7441V31.625H24.0156V33.6875H25.3879V31.625H26.7602V37.125H31.6896C31.8515 37.5837 32.17 37.9703 32.5888 38.2165C33.0076 38.4627 33.4999 38.5526 33.9784 38.4703C34.457 38.388 34.8912 38.1389 35.2042 37.7669C35.5172 37.3949 35.6888 36.924 35.6888 36.4375C35.6888 35.951 35.5172 35.4801 35.2042 35.1081C34.8912 34.7361 34.457 34.487 33.9784 34.4047C33.4999 34.3224 33.0076 34.4123 32.5888 34.6585C32.17 34.9047 31.8515 35.2913 31.6896 35.75H28.1325V31.625C29.0421 31.6239 29.9141 31.2614 30.5573 30.617C31.2004 29.9726 31.5623 29.0988 31.5633 28.1875H37.4547L38.6308 29.3666C38.4965 29.6417 38.4261 29.9437 38.4249 30.25C38.4249 30.6579 38.5457 31.0567 38.7719 31.3959C38.9981 31.735 39.3195 31.9994 39.6957 32.1555C40.0718 32.3116 40.4857 32.3524 40.885 32.2729C41.2843 32.1933 41.6511 31.9968 41.939 31.7084C42.2269 31.42 42.4229 31.0525 42.5024 30.6524C42.5818 30.2523 42.541 29.8376 42.3852 29.4607C42.2294 29.0838 41.9656 28.7617 41.6271 28.5351C41.2885 28.3085 40.8906 28.1875 40.4834 28.1875ZM40.4834 18.5625C40.6191 18.5625 40.7518 18.6028 40.8646 18.6784C40.9775 18.7539 41.0654 18.8613 41.1174 18.9869C41.1693 19.1125 41.1829 19.2508 41.1564 19.3841C41.1299 19.5175 41.0646 19.64 40.9686 19.7361C40.8727 19.8323 40.7504 19.8978 40.6173 19.9243C40.4842 19.9508 40.3462 19.9372 40.2208 19.8852C40.0955 19.8331 39.9883 19.745 39.9129 19.632C39.8375 19.5189 39.7973 19.386 39.7973 19.25C39.7973 19.0677 39.8696 18.8928 39.9982 18.7639C40.1269 18.6349 40.3014 18.5625 40.4834 18.5625ZM37.7388 12.375C37.8745 12.375 38.0072 12.4153 38.12 12.4909C38.2328 12.5664 38.3208 12.6738 38.3727 12.7994C38.4246 12.925 38.4382 13.0633 38.4118 13.1966C38.3853 13.33 38.3199 13.4525 38.224 13.5486C38.128 13.6448 38.0058 13.7103 37.8727 13.7368C37.7395 13.7633 37.6016 13.7497 37.4762 13.6977C37.3508 13.6456 37.2437 13.5575 37.1683 13.4445C37.0929 13.3314 37.0526 13.1985 37.0526 13.0625C37.0526 12.8802 37.1249 12.7053 37.2536 12.5764C37.3823 12.4474 37.5568 12.375 37.7388 12.375ZM32.9357 4.125C33.0714 4.125 33.204 4.16532 33.3169 4.24087C33.4297 4.31641 33.5177 4.42378 33.5696 4.54941C33.6215 4.67503 33.6351 4.81326 33.6086 4.94663C33.5822 5.07999 33.5168 5.20249 33.4209 5.29864C33.3249 5.39478 33.2026 5.46026 33.0695 5.48679C32.9364 5.51332 32.7985 5.4997 32.6731 5.44767C32.5477 5.39563 32.4405 5.30751 32.3651 5.19446C32.2897 5.0814 32.2495 4.94848 32.2495 4.8125C32.2495 4.63016 32.3218 4.4553 32.4505 4.32636C32.5792 4.19743 32.7537 4.125 32.9357 4.125ZM21.9571 4.8125C22.0928 4.8125 22.2255 4.85282 22.3383 4.92837C22.4512 5.00391 22.5391 5.11128 22.591 5.23691C22.643 5.36253 22.6566 5.50076 22.6301 5.63413C22.6036 5.76749 22.5383 5.88999 22.4423 5.98614C22.3463 6.08228 22.2241 6.14776 22.091 6.17429C21.9579 6.20082 21.8199 6.1872 21.6945 6.13517C21.5692 6.08313 21.462 5.99501 21.3866 5.88196C21.3112 5.7689 21.271 5.63598 21.271 5.5C21.271 5.31766 21.3432 5.1428 21.4719 5.01386C21.6006 4.88493 21.7751 4.8125 21.9571 4.8125ZM11.6647 3.4375C11.6647 3.30153 11.705 3.16861 11.7804 3.05555C11.8557 2.94249 11.9629 2.85437 12.0883 2.80233C12.2137 2.7503 12.3516 2.73668 12.4847 2.76321C12.6178 2.78974 12.7401 2.85522 12.8361 2.95137C12.932 3.04751 12.9974 3.17001 13.0238 3.30338C13.0503 3.43674 13.0367 3.57497 12.9848 3.7006C12.9329 3.82622 12.8449 3.93359 12.7321 4.00914C12.6192 4.08468 12.4866 4.125 12.3509 4.125C12.1689 4.125 11.9944 4.05257 11.8657 3.92364C11.737 3.79471 11.6647 3.61984 11.6647 3.4375ZM5.48927 13.0625C5.48927 12.9265 5.52952 12.7936 5.60491 12.6805C5.68031 12.5675 5.78747 12.4794 5.91285 12.4273C6.03823 12.3753 6.1762 12.3617 6.3093 12.3882C6.4424 12.4147 6.56466 12.4802 6.66062 12.5764C6.75658 12.6725 6.82193 12.795 6.84841 12.9284C6.87489 13.0617 6.8613 13.2 6.80936 13.3256C6.75743 13.4512 6.66948 13.5586 6.55664 13.6341C6.44381 13.7097 6.31114 13.75 6.17543 13.75C5.99345 13.75 5.81893 13.6776 5.69025 13.5486C5.56157 13.4197 5.48927 13.2448 5.48927 13.0625ZM3.43079 24.0625C3.29509 24.0625 3.16242 24.0222 3.04959 23.9466C2.93675 23.8711 2.8488 23.7637 2.79687 23.6381C2.74493 23.5125 2.73134 23.3742 2.75782 23.2409C2.7843 23.1075 2.84965 22.985 2.94561 22.8889C3.04157 22.7927 3.16383 22.7272 3.29693 22.7007C3.43003 22.6742 3.568 22.6878 3.69338 22.7398C3.81876 22.7919 3.92592 22.88 4.00132 22.993C4.07671 23.1061 4.11695 23.239 4.11695 23.375C4.11695 23.5573 4.04466 23.7322 3.91598 23.8611C3.7873 23.9901 3.61278 24.0625 3.43079 24.0625ZM5.48927 33.6875C5.35356 33.6875 5.2209 33.6472 5.10806 33.5716C4.99523 33.4961 4.90728 33.3887 4.85535 33.2631C4.80341 33.1375 4.78982 32.9992 4.8163 32.8659C4.84277 32.7325 4.90813 32.61 5.00409 32.5139C5.10005 32.4177 5.22231 32.3522 5.35541 32.3257C5.48851 32.2992 5.62648 32.3128 5.75186 32.3648C5.87724 32.4169 5.9844 32.505 6.0598 32.618C6.13519 32.7311 6.17543 32.864 6.17543 33C6.17543 33.1823 6.10314 33.3572 5.97446 33.4861C5.84578 33.6151 5.67126 33.6875 5.48927 33.6875ZM12.3509 41.25C12.2152 41.25 12.0825 41.2097 11.9697 41.1341C11.8568 41.0586 11.7689 40.9512 11.7169 40.8256C11.665 40.7 11.6514 40.5617 11.6779 40.4284C11.7044 40.295 11.7697 40.1725 11.8657 40.0764C11.9616 39.9802 12.0839 39.9147 12.217 39.8882C12.3501 39.8617 12.4881 39.8753 12.6135 39.9273C12.7388 39.9794 12.846 40.0675 12.9214 40.1805C12.9968 40.2936 13.037 40.4265 13.037 40.5625C13.037 40.7448 12.9647 40.9197 12.8361 41.0486C12.7074 41.1776 12.5329 41.25 12.3509 41.25ZM27.4464 39.875C27.5821 39.875 27.7148 39.9153 27.8276 39.9909C27.9404 40.0664 28.0284 40.1738 28.0803 40.2994C28.1322 40.425 28.1458 40.5633 28.1194 40.6966C28.0929 40.83 28.0275 40.9525 27.9316 41.0486C27.8356 41.1448 27.7134 41.2103 27.5803 41.2368C27.4472 41.2633 27.3092 41.2497 27.1838 41.1977C27.0584 41.1456 26.9513 41.0575 26.8759 40.9445C26.8005 40.8314 26.7602 40.6985 26.7602 40.5625C26.7602 40.3802 26.8325 40.2053 26.9612 40.0764C27.0899 39.9474 27.2644 39.875 27.4464 39.875ZM33.6218 35.75C33.7575 35.75 33.8902 35.7903 34.003 35.8659C34.1159 35.9414 34.2038 36.0488 34.2558 36.1744C34.3077 36.3 34.3213 36.4383 34.2948 36.5716C34.2683 36.705 34.203 36.8275 34.107 36.9236C34.0111 37.0198 33.8888 37.0853 33.7557 37.1118C33.6226 37.1383 33.4846 37.1247 33.3592 37.0727C33.2339 37.0206 33.1267 36.9325 33.0513 36.8195C32.9759 36.7064 32.9357 36.5735 32.9357 36.4375C32.9357 36.2552 33.008 36.0803 33.1366 35.9514C33.2653 35.8224 33.4398 35.75 33.6218 35.75ZM30.191 28.1875C30.191 28.7345 29.9742 29.2591 29.5881 29.6459C29.2021 30.0327 28.6785 30.25 28.1325 30.25H15.7817C15.2357 30.25 14.7121 30.0327 14.3261 29.6459C13.9401 29.2591 13.7232 28.7345 13.7232 28.1875V15.8125C13.7232 15.2655 13.9401 14.7409 14.3261 14.3541C14.7121 13.9673 15.2357 13.75 15.7817 13.75H28.1325C28.6785 13.75 29.2021 13.9673 29.5881 14.3541C29.9742 14.7409 30.191 15.2655 30.191 15.8125V28.1875ZM40.4834 30.9375C40.3477 30.9375 40.2151 30.8972 40.1022 30.8216C39.9894 30.7461 39.9014 30.6387 39.8495 30.5131C39.7976 30.3875 39.784 30.2492 39.8105 30.1159C39.8369 29.9825 39.9023 29.86 39.9982 29.7639C40.0942 29.6677 40.2165 29.6022 40.3496 29.5757C40.4827 29.5492 40.6206 29.5628 40.746 29.6148C40.8714 29.6669 40.9785 29.755 41.0539 29.868C41.1293 29.9811 41.1696 30.114 41.1696 30.25C41.1696 30.4323 41.0973 30.6072 40.9686 30.7361C40.8399 30.8651 40.6654 30.9375 40.4834 30.9375Z" fill="#292929"></path></svg>