<svg xmlns="http://www.w3.org/2000/svg" width="48" height="48" viewBox="0 0 48 48" fill="none"><g clip-path="url(#clip0_2258_762)"><path d="M13.2395 1.54839C15.3073 1.54839 17.2515 2.35358 18.7137 3.81615L19.8085 2.7214C18.0533 0.96623 15.7209 0 13.2395 0C10.7582 0 8.4254 0.96623 6.67061 2.7214L7.76499 3.81615C9.22681 2.35358 11.1717 1.54839 13.2395 1.54839Z" fill="white"></path><path d="M17.6182 4.91056C16.4486 3.74095 14.893 3.0968 13.2395 3.0968C11.5842 3.0968 10.029 3.74096 8.85976 4.9117L9.95527 6.00608C10.8319 5.1283 11.9985 4.64519 13.2395 4.64519C14.4806 4.64519 15.6464 5.1283 16.5246 6.00532L17.6182 4.91056Z" fill="white"></path><path d="M11.0493 7.10079L12.144 8.19555C12.7285 7.60962 13.748 7.60962 14.3343 8.19555L15.4291 7.10079C14.2591 5.93043 12.2193 5.93043 11.0493 7.10079Z" fill="white"></path><path d="M21.6774 9.29028H4.64516C2.93725 9.29028 1.54839 10.6791 1.54839 12.3871V44.9032C1.54839 46.6111 2.93725 48 4.64516 48H21.6774C23.3853 48 24.7742 46.6111 24.7742 44.9032V12.3871C24.7742 10.6791 23.3853 9.29028 21.6774 9.29028ZM4.64516 10.8387H21.6774C22.5314 10.8387 23.2258 11.5331 23.2258 12.3871V15.4838H3.09677V12.3871C3.09677 11.5331 3.7912 10.8387 4.64516 10.8387ZM23.2258 17.0322V40.258H3.09677V17.0322H23.2258ZM21.6774 46.4516H4.64516C3.7912 46.4516 3.09677 45.7571 3.09677 44.9032V41.8064H23.2258V44.9032C23.2258 45.7571 22.5314 46.4516 21.6774 46.4516Z" fill="white"></path><path d="M9.29033 43.3549H17.0323V44.9032H9.29033V43.3549Z" fill="white"></path><path d="M44.5139 24.8052C44.1188 24.7417 43.7212 24.778 43.3548 24.9073V24.0835C43.3548 22.9098 42.5217 21.8887 41.4171 21.7092C40.9858 21.6396 40.5529 21.6899 40.1605 21.8487C39.9095 20.9837 39.2011 20.3048 38.3203 20.1608C37.9245 20.098 37.5276 20.1336 37.1613 20.2629V18.5806H41.0323V8.51613H31.7419V4.64516C31.7419 2.93725 33.1308 1.54839 34.8387 1.54839C36.5466 1.54839 37.9355 2.93725 37.9355 4.64516V6.96774H39.4839V4.64516C39.4839 2.08329 37.4006 0 34.8387 0C32.2768 0 30.1936 2.08329 30.1936 4.64516V8.51613H28.6452V18.5806H32.5161V29.7222L32.2515 28.5299C31.861 26.7739 30.333 25.5484 28.5352 25.5484C27.3153 25.5484 26.3226 26.5411 26.3226 27.761C26.3226 27.8725 26.3313 27.984 26.3483 28.0978L27.7874 37.4524C27.8642 37.951 28.0343 38.4231 28.2944 38.8552L29.862 41.4681C30.079 41.8303 30.1936 42.2438 30.1936 42.6642V48H44.129V42.6642C44.129 42.2438 44.2436 41.8303 44.4594 41.4689L45.9005 39.068C46.2611 38.4674 46.4516 37.7782 46.4516 37.0777V27.1796C46.4516 26.0066 45.6185 24.9848 44.5139 24.8052ZM30.1936 17.0323V10.0645H39.4839V17.0323H37.1613V15.4839C37.1613 14.8012 36.8634 14.1563 36.3421 13.714C35.8227 13.2721 35.1343 13.0815 34.4539 13.1923C33.3493 13.3719 32.5161 14.3937 32.5161 15.5667V17.0323H30.1936ZM44.9032 37.0777C44.9032 37.4981 44.7887 37.9117 44.5728 38.2731L43.1318 40.6739C42.7712 41.2746 42.5807 41.9637 42.5807 42.6642V46.4516H31.7419V42.6642C31.7419 41.9637 31.5514 41.2746 31.1908 40.6724L29.6224 38.0587C29.4666 37.7994 29.3645 37.5159 29.3181 37.2161L27.8797 27.8642C27.8732 27.8298 27.871 27.795 27.871 27.7602C27.871 27.3947 28.1689 27.0968 28.5352 27.0968C29.6012 27.0968 30.5077 27.8237 30.7402 28.8652L31.8954 34.0645H34.0645V15.5667C34.0645 15.1501 34.3446 14.7785 34.7034 14.7206C34.94 14.6817 35.1638 14.7429 35.3396 14.893C35.5139 15.0412 35.6129 15.2563 35.6129 15.4839V32.5161H37.1613V22.4516C37.1613 22.224 37.2603 22.0089 37.4346 21.8608C37.6104 21.7122 37.8349 21.6479 38.0708 21.6884C38.4296 21.747 38.7097 22.1178 38.7097 22.5344V32.5161H40.2581V24C40.2581 23.7724 40.3571 23.5573 40.5314 23.4091C40.7072 23.2606 40.9317 23.1963 41.1676 23.2368C41.5263 23.2954 41.8065 23.6662 41.8065 24.0828V32.5161H43.3548V27.0968C43.3548 26.8692 43.4539 26.6541 43.6282 26.5059C43.8039 26.3574 44.0285 26.2939 44.2644 26.3335C44.6231 26.3921 44.9032 26.763 44.9032 27.1796V37.0777Z" fill="white"></path><path d="M10.8387 31.4213L9.06351 29.6461L7.96875 30.7409L10.8387 33.6109L18.3538 26.0957L17.2591 25.001L10.8387 31.4213Z" fill="white"></path><path d="M13.1613 21.6774C17.0028 21.6774 20.129 24.8029 20.129 28.6452C20.129 30.2476 19.5699 31.8138 18.5557 33.0525L19.7544 34.0343C20.9947 32.5184 21.6774 30.6045 21.6774 28.6452C21.6774 23.9497 17.8567 20.129 13.1613 20.129C11.202 20.129 9.28805 20.8125 7.77217 22.0528L8.75314 23.2508C9.99269 22.2365 11.5588 21.6774 13.1613 21.6774Z" fill="white"></path><path d="M13.1613 37.1613C15.1206 37.1613 17.0345 36.4779 18.5504 35.2376L17.5694 34.0396C16.3299 35.0539 14.7637 35.613 13.1613 35.613C9.3198 35.613 6.19354 32.4875 6.19354 28.6452C6.19354 27.0428 6.75264 25.4766 7.76688 24.2378L6.56817 23.2561C5.32787 24.772 4.64516 26.6859 4.64516 28.6452C4.64516 33.3407 8.46585 37.1613 13.1613 37.1613Z" fill="white"></path></g><defs><clipPath id="clip0_2258_762"><rect width="48" height="48" fill="white"></rect></clipPath></defs></svg>