<svg xmlns="http://www.w3.org/2000/svg" width="44" height="44" viewBox="0 0 44 44" fill="none"><g clip-path="url(#clip0_2068_1252)"><path fill-rule="evenodd" clip-rule="evenodd" d="M1.78738 38.1162V13.333C1.78738 13.1507 1.8598 12.9758 1.98871 12.8469C2.11761 12.718 2.29245 12.6456 2.47476 12.6456H9.92444L7.46876 6.38782C7.4404 6.31644 7.41644 6.24653 7.39591 6.17809C7.21043 5.57484 7.26062 4.9237 7.53635 4.356C7.81207 3.7883 8.29283 3.34629 8.88164 3.11911C8.95107 3.09173 9.02049 3.06778 9.08991 3.04724L14.5068 1.42071C14.6238 1.01223 14.8703 0.652818 15.2092 0.396584C15.5482 0.14035 15.9612 0.00116957 16.3861 0H27.566C28.0846 0 28.5821 0.206031 28.9488 0.572769C29.3155 0.939507 29.5216 1.43691 29.5216 1.95556V2.24107L34.9336 3.80551L34.9536 3.81138C34.9707 3.81627 34.9873 3.82213 35.0025 3.82849C35.4592 3.98135 35.8392 4.30484 36.0629 4.73133C36.2867 5.15782 36.337 5.6543 36.2032 6.11698C36.1949 6.14582 36.2071 6.10036 36.192 6.14973L34.1924 12.6466H41.6235C41.8058 12.6466 41.9807 12.719 42.1096 12.8479C42.2385 12.9768 42.3109 13.1517 42.3109 13.334V38.1162H43.3063C43.397 38.1154 43.4871 38.1327 43.5712 38.1668C43.6553 38.201 43.7318 38.2515 43.7963 38.3154C43.8608 38.3793 43.912 38.4554 43.9469 38.5392C43.9819 38.6229 43.9999 38.7128 44 38.8036V41.5096C43.9985 42.1655 43.7372 42.794 43.2734 43.2578C42.8097 43.7216 42.1811 43.9828 41.5252 43.9844H2.47476C1.81889 43.9828 1.19032 43.7216 0.72655 43.2578C0.262779 42.794 0.00154931 42.1655 0 41.5096V38.8036C0.000129495 38.6213 0.072591 38.4466 0.201471 38.3177C0.330352 38.1888 0.505114 38.1164 0.687378 38.1162H1.78738ZM18.4311 12.211H25.3416C25.5208 12.2062 25.691 12.1317 25.8161 12.0032C25.9411 11.8748 26.0111 11.7026 26.0111 11.5234C26.0111 11.3441 25.9411 11.1719 25.8161 11.0435C25.691 10.9151 25.5208 10.8405 25.3416 10.8357H18.4311C18.3393 10.8333 18.2479 10.8493 18.1623 10.8827C18.0767 10.9162 17.9987 10.9664 17.9329 11.0305C17.8671 11.0946 17.8148 11.1712 17.779 11.2559C17.7433 11.3405 17.7249 11.4315 17.7249 11.5234C17.7249 11.6152 17.7433 11.7062 17.779 11.7908C17.8148 11.8755 17.8671 11.9521 17.9329 12.0162C17.9987 12.0803 18.0767 12.1305 18.1623 12.164C18.2479 12.1975 18.3393 12.2134 18.4311 12.211ZM18.4311 8.65284H25.3416C25.5208 8.64807 25.691 8.57352 25.8161 8.44509C25.9411 8.31666 26.0111 8.14448 26.0111 7.96522C26.0111 7.78596 25.9411 7.61379 25.8161 7.48535C25.691 7.35692 25.5208 7.28238 25.3416 7.2776H18.4311C18.3393 7.27515 18.2479 7.29113 18.1623 7.32458C18.0767 7.35804 17.9987 7.40829 17.9329 7.47239C17.8671 7.53648 17.8148 7.61311 17.779 7.69776C17.7433 7.7824 17.7249 7.87335 17.7249 7.96522C17.7249 8.0571 17.7433 8.14804 17.779 8.23269C17.8148 8.31733 17.8671 8.39396 17.9329 8.45806C17.9987 8.52215 18.0767 8.57241 18.1623 8.60586C18.2479 8.63932 18.3393 8.65529 18.4311 8.65284ZM18.4311 5.09471H25.3416C25.5239 5.09471 25.6987 5.02229 25.8276 4.89338C25.9565 4.76447 26.0289 4.58964 26.0289 4.40733C26.0289 4.22503 25.9565 4.05019 25.8276 3.92128C25.6987 3.79238 25.5239 3.71996 25.3416 3.71996H18.4311C18.2488 3.71996 18.074 3.79238 17.9451 3.92128C17.8162 4.05019 17.7437 4.22503 17.7437 4.40733C17.7437 4.58964 17.8162 4.76447 17.9451 4.89338C18.074 5.02229 18.2488 5.09471 18.4311 5.09471ZM15.092 38.1162C15.5041 36.6465 16.3855 35.3519 17.6019 34.4297C18.8182 33.5075 20.3027 33.0084 21.8291 33.0084C23.3555 33.0084 24.8401 33.5075 26.0564 34.4297C27.2727 35.3519 28.1542 36.6465 28.5663 38.1162H36.3499L36.0199 36.2809L31.2845 36.0688C31.1841 36.0647 31.0859 36.0384 30.997 35.9915C30.8361 35.9075 30.7152 35.763 30.6608 35.5898C30.6064 35.4166 30.6231 35.2289 30.7071 35.068L32.9022 30.8777L29.6687 28.2206L25.9316 31.1197C25.841 31.1928 25.7332 31.2415 25.6185 31.2613C25.5038 31.2811 25.3859 31.2713 25.276 31.2328C25.1661 31.1943 25.0679 31.1285 24.9906 31.0414C24.9132 30.9544 24.8594 30.8491 24.8341 30.7355L23.7923 26.1238L19.6093 26.1937L18.7733 30.1977C18.7526 30.3166 18.7007 30.4279 18.623 30.5203C18.5453 30.6128 18.4446 30.683 18.331 30.7239C18.2174 30.7648 18.095 30.7749 17.9763 30.7533C17.8575 30.7316 17.7466 30.6789 17.6548 30.6005L14.5259 27.9483L11.2268 30.5218L13.2352 34.8011C13.2867 34.9055 13.3107 35.0213 13.3049 35.1375C13.2991 35.2538 13.2638 35.3666 13.2023 35.4654C13.1408 35.5642 13.0551 35.6457 12.9533 35.7022C12.8516 35.7587 12.7371 35.7882 12.6207 35.7881L7.89409 35.7969L7.41498 38.1162H15.092ZM27.127 38.1162C26.7383 37.022 26.0203 36.075 25.0717 35.4053C24.123 34.7356 22.9903 34.3761 21.8291 34.3761C20.6679 34.3761 19.5352 34.7356 18.5866 35.4053C17.638 36.075 16.92 37.022 16.5313 38.1162H17.5091C17.5993 38.1162 17.6887 38.134 17.7721 38.1685C17.8555 38.2031 17.9313 38.2537 17.9951 38.3176C18.0589 38.3814 18.1096 38.4572 18.1441 38.5406C18.1787 38.6239 18.1964 38.7133 18.1964 38.8036V39.0344C18.198 39.3404 18.3202 39.6335 18.5367 39.8499C18.7531 40.0663 19.0461 40.1885 19.3522 40.1901H24.3041C24.6102 40.1885 24.9032 40.0663 25.1197 39.8499C25.3361 39.6335 25.4583 39.3404 25.4599 39.0344V38.8036C25.46 38.6213 25.5325 38.4466 25.6613 38.3177C25.7902 38.1888 25.965 38.1164 26.1472 38.1162H27.127ZM6.01773 38.1162L6.666 34.9761C6.69831 34.8173 6.7859 34.6751 6.91321 34.5748C7.04051 34.4746 7.19926 34.4227 7.3612 34.4285L11.5451 34.4207L9.75236 30.6074C9.68626 30.4669 9.6699 30.3081 9.70597 30.157C9.74204 30.006 9.82839 29.8717 9.95084 29.7763L14.1211 26.5232C14.2451 26.4261 14.3987 26.3747 14.5562 26.3778C14.7137 26.3808 14.8653 26.438 14.9854 26.5398L17.6621 28.8078L18.3803 25.3768C18.413 25.2182 18.5008 25.0764 18.6282 24.9766C18.7556 24.8767 18.9142 24.8252 19.076 24.8312L24.3291 24.7436C24.4864 24.7411 24.6399 24.7928 24.7636 24.8901C24.8873 24.9874 24.9736 25.1244 25.0081 25.278L25.9346 29.3817L29.2629 26.7999C29.3893 26.702 29.546 26.6515 29.7057 26.657C29.8655 26.6626 30.0183 26.7238 30.1376 26.8302L34.2027 30.1713C34.3273 30.2736 34.4118 30.4165 34.4413 30.575C34.4708 30.7335 34.4434 30.8973 34.364 31.0376L32.4202 34.7473L36.6246 34.936C36.7857 34.9427 36.9392 35.006 37.0581 35.1147C37.177 35.2235 37.2538 35.3707 37.2748 35.5305L37.7403 38.1162H38.0463V16.1534H33.1164L31.7475 20.6052C31.5985 21.0829 31.2686 21.4833 30.8282 21.7208C30.3878 21.9584 29.872 22.0142 29.391 21.8763L28.752 21.6915C28.4123 21.9524 27.9958 22.0936 27.5675 22.0934H16.3861C15.8996 22.0935 15.4308 21.9114 15.072 21.583C14.6084 21.5243 14.1653 21.3568 13.7788 21.0941C13.3058 20.7762 12.9396 20.323 12.7282 19.7936L11.2992 16.1504H5.75227V38.1162H6.01773ZM40.9444 38.1162V14.0204H33.7729L33.5378 14.7786H38.7352C38.8254 14.7786 38.9149 14.7963 38.9983 14.8308C39.0817 14.8653 39.1575 14.916 39.2213 14.9798C39.2852 15.0436 39.3358 15.1195 39.3703 15.2029C39.4049 15.2863 39.4226 15.3757 39.4225 15.466V38.1162H40.9444ZM4.37947 38.1162V15.466C4.3794 15.3757 4.39714 15.2863 4.43166 15.2029C4.46618 15.1195 4.51681 15.0436 4.58065 14.9798C4.64449 14.916 4.72029 14.8653 4.80372 14.8308C4.88715 14.7963 4.97656 14.7786 5.06684 14.7786H10.7595L10.4622 14.0204H3.16213V38.1162H4.37947ZM26.7911 39.4915C26.6829 40.0729 26.3749 40.5984 25.9205 40.9769C25.466 41.3555 24.8936 41.5634 24.3022 41.5648H19.3502C18.7588 41.5634 18.1864 41.3555 17.7319 40.9769C17.2775 40.5984 16.9695 40.0729 16.8613 39.4915H1.37524V41.5096C1.37653 41.8008 1.49278 42.0797 1.6987 42.2857C1.90463 42.4916 2.18354 42.6078 2.47476 42.6091H41.5252C41.8165 42.6078 42.0954 42.4916 42.3013 42.2857C42.5072 42.0797 42.6235 41.8008 42.6248 41.5096V39.4915H26.7911ZM29.5176 3.66471V20.1403C29.5177 20.254 29.5077 20.3675 29.4878 20.4796L29.7689 20.5607C29.9046 20.5973 30.0492 20.5805 30.1728 20.5136C30.2965 20.4468 30.3897 20.335 30.4333 20.2014L34.8871 5.74053V5.73711C34.9229 5.61129 34.9078 5.47644 34.8451 5.36164C34.7878 5.25409 34.6924 5.17179 34.5776 5.13089L34.5405 5.11964L29.5196 3.66471H29.5176ZM34.8871 5.74053C34.8871 5.73271 34.8871 5.73516 34.8871 5.74053V5.74053ZM34.8871 5.74053C34.8798 5.76596 34.8871 5.74982 34.8871 5.74053V5.74053ZM14.4325 2.87662L9.48004 4.36138C9.44387 4.37213 9.41013 4.38387 9.37933 4.39609C9.11266 4.49723 8.89439 4.69593 8.76871 4.95196C8.64538 5.21177 8.62443 5.5085 8.71004 5.78307C8.72031 5.81876 8.73204 5.85298 8.74475 5.88524L14.0067 19.2969C14.0969 19.5236 14.2434 19.7235 14.4325 19.8777V2.87662ZM27.566 1.37524H16.3861C16.233 1.37614 16.0864 1.43736 15.9781 1.54563C15.8699 1.6539 15.8086 1.80049 15.8077 1.9536V20.1403C15.808 20.2938 15.8689 20.441 15.9773 20.5498C16.0856 20.6586 16.2326 20.7202 16.3861 20.7211H27.566C27.7192 20.7203 27.8659 20.6591 27.9743 20.5508C28.0827 20.4426 28.1439 20.2959 28.1448 20.1427V1.9536C28.1439 1.8004 28.0827 1.65374 27.9743 1.54546C27.8659 1.43718 27.7192 1.37601 27.566 1.37524Z" fill="black"></path><path d="M27.3777 0.72551H16.6222C15.8122 0.72551 15.1555 1.38216 15.1555 2.19218V20.0366C15.1555 20.8466 15.8122 21.5033 16.6222 21.5033H27.3777C28.1878 21.5033 28.8444 20.8466 28.8444 20.0366V2.19218C28.8444 1.38216 28.1878 0.72551 27.3777 0.72551Z" stroke="#519FDF" stroke-width="1.46667" stroke-miterlimit="10" stroke-linecap="round" stroke-linejoin="round"></path><path d="M28.8445 2.68106L34.5806 4.39217C35.3552 4.629 35.7912 5.2752 35.5544 6.04982L31.3149 20.1812C31.0781 20.9558 30.2582 21.3918 29.4835 21.155L28.6939 20.9136" stroke="#519FDF" stroke-width="1.46667" stroke-miterlimit="10" stroke-linecap="round" stroke-linejoin="round"></path><path d="M15.4 20.77C14.6254 21.0068 13.6813 20.5668 13.4445 19.7922L8.0667 5.6144C7.82987 4.83978 8.25398 4.14011 9.0286 3.90329L14.6667 1.94773" stroke="#519FDF" stroke-width="1.46667" stroke-miterlimit="10" stroke-linecap="round" stroke-linejoin="round"></path><path d="M18.3333 4.39217H25.6666" stroke="#519FDF" stroke-width="1.46667" stroke-miterlimit="10" stroke-linecap="round" stroke-linejoin="round"></path><path d="M18.3333 7.96107H25.6666" stroke="#519FDF" stroke-width="1.46667" stroke-miterlimit="10" stroke-linecap="round" stroke-linejoin="round"></path><path d="M18.3333 11.53H25.6666" stroke="#519FDF" stroke-width="1.46667" stroke-miterlimit="10" stroke-linecap="round" stroke-linejoin="round"></path></g><defs><clipPath id="clip0_2068_1252"><rect width="44" height="43.9844" fill="white"></rect></clipPath></defs></svg>