<svg xmlns="http://www.w3.org/2000/svg" width="44" height="44" viewBox="0 0 44 44" fill="none"><g clip-path="url(#clip0_2011_135)"><mask id="mask0_2011_135" style="mask-type:luminance" maskUnits="userSpaceOnUse" x="0" y="0" width="44" height="44"><path d="M0 3.8147e-06H44V44H0V3.8147e-06Z" fill="white"></path></mask><g mask="url(#mask0_2011_135)"><path d="M30.4648 9.88281H13.5352V15.968C13.5352 19.3469 16.2742 22.0859 19.653 22.0859H24.3469C27.7258 22.0859 30.4648 19.3469 30.4648 15.968V9.88281Z" stroke="#292929" stroke-width="2" stroke-miterlimit="10" stroke-linecap="round" stroke-linejoin="round"></path><path d="M22 1.28906C18.5234 1.28906 15.7051 4.10738 15.7051 7.58398V9.88281H28.2949V7.58398C28.2949 4.10738 25.4766 1.28906 22 1.28906Z" stroke="#292929" stroke-width="2" stroke-miterlimit="10" stroke-linecap="round" stroke-linejoin="round"></path><path d="M22 15.0391V16.9297" stroke="#292929" stroke-width="2" stroke-miterlimit="10" stroke-linecap="round" stroke-linejoin="round"></path><path d="M20.625 15.0391H23.375" stroke="#292929" stroke-width="2" stroke-miterlimit="10" stroke-linecap="round" stroke-linejoin="round"></path><path d="M12.0233 37.5547L9.04946 32.4056" stroke="#519FDF" stroke-width="2" stroke-miterlimit="10" stroke-linecap="round" stroke-linejoin="round"></path><path d="M9.04944 37.5547L12.0233 32.4056" stroke="#519FDF" stroke-width="2" stroke-miterlimit="10" stroke-linecap="round" stroke-linejoin="round"></path><path d="M7.5625 34.9802H13.5102" stroke="#519FDF" stroke-width="2" stroke-miterlimit="10" stroke-linecap="round" stroke-linejoin="round"></path><path d="M20.4739 37.5547L23.4478 32.4056" stroke="#519FDF" stroke-width="2" stroke-miterlimit="10" stroke-linecap="round" stroke-linejoin="round"></path><path d="M23.4478 37.5547L20.4739 32.4056" stroke="#519FDF" stroke-width="2" stroke-miterlimit="10" stroke-linecap="round" stroke-linejoin="round"></path><path d="M24.9347 34.9802H18.987" stroke="#519FDF" stroke-width="2" stroke-miterlimit="10" stroke-linecap="round" stroke-linejoin="round"></path><path d="M34.9506 37.5476L31.9767 32.3985" stroke="#519FDF" stroke-width="2" stroke-miterlimit="10" stroke-linecap="round" stroke-linejoin="round"></path><path d="M31.9767 37.5476L34.9505 32.3985" stroke="#519FDF" stroke-width="2" stroke-miterlimit="10" stroke-linecap="round" stroke-linejoin="round"></path><path d="M36.4375 34.9729H30.4898" stroke="#519FDF" stroke-width="2" stroke-miterlimit="10" stroke-linecap="round" stroke-linejoin="round"></path><path d="M39.964 27.2422H4.03602C2.51888 27.2422 1.28902 28.472 1.28902 29.9891V39.964C1.28902 41.4811 2.51888 42.7109 4.03602 42.7109H39.964C41.481 42.7109 42.7109 41.4811 42.7109 39.964V29.9891C42.7109 28.472 41.481 27.2422 39.964 27.2422Z" stroke="#292929" stroke-width="2" stroke-miterlimit="10" stroke-linecap="round" stroke-linejoin="round"></path></g></g><defs><clipPath id="clip0_2011_135"><rect width="44" height="44" fill="white"></rect></clipPath></defs></svg>