<svg xmlns="http://www.w3.org/2000/svg" width="44" height="44" viewBox="0 0 44 44" fill="none"><path d="M42.9524 6.70476H23.8857V3.97277C23.8845 2.91936 23.4654 1.90947 22.7205 1.16468C21.9755 0.419883 20.9655 0.00102277 19.9121 0H3.97277C2.91945 0.00105268 1.90957 0.419949 1.16476 1.16476C0.419949 1.90957 0.00105268 2.91945 0 3.97277V40.0264C0.00102277 41.0798 0.419883 42.0898 1.16468 42.8347C1.90947 43.5797 2.91936 43.9988 3.97277 44H19.9121C20.9656 43.9988 21.9756 43.5798 22.7205 42.8348C23.4655 42.0899 23.8845 41.0799 23.8857 40.0264V25.5619H42.9524C43.09 25.5619 43.2262 25.5348 43.3533 25.4822C43.4804 25.4295 43.5959 25.3524 43.6932 25.2551C43.7905 25.1578 43.8676 25.0423 43.9203 24.9152C43.9729 24.7881 44 24.6519 44 24.5143V7.75238C44 7.6148 43.9729 7.47857 43.9203 7.35146C43.8676 7.22435 43.7905 7.10886 43.6932 7.01158C43.5959 6.9143 43.4804 6.83713 43.3533 6.78448C43.2262 6.73184 43.09 6.70475 42.9524 6.70476ZM19.9121 41.9048H3.97277C3.4749 41.904 2.99764 41.7059 2.64566 41.3538C2.29369 41.0016 2.09575 40.5243 2.09524 40.0264V37.2952H21.7905V40.0264C21.7898 40.5244 21.5917 41.0017 21.2396 41.3538C20.8874 41.7059 20.4101 41.9041 19.9121 41.9048ZM21.7905 35.2H2.09524V3.97277C2.09578 3.47498 2.29376 2.99774 2.64575 2.64575C2.99774 2.29376 3.47498 2.09578 3.97277 2.09524H19.9121C20.41 2.09575 20.8873 2.29369 21.2395 2.64566C21.5916 2.99764 21.7898 3.4749 21.7905 3.97277V6.70476H7.75238C7.6148 6.70475 7.47857 6.73184 7.35146 6.78448C7.22435 6.83713 7.10886 6.9143 7.01158 7.01158C6.9143 7.10886 6.83713 7.22435 6.78448 7.35146C6.73184 7.47857 6.70475 7.6148 6.70476 7.75238V24.5143C6.70475 24.6519 6.73184 24.7881 6.78448 24.9152C6.83713 25.0423 6.9143 25.1578 7.01158 25.2551C7.10886 25.3524 7.22435 25.4295 7.35146 25.4822C7.47857 25.5348 7.6148 25.5619 7.75238 25.5619H12.5714V30.381C12.5714 30.5882 12.6328 30.7907 12.7479 30.963C12.863 31.1353 13.0267 31.2696 13.2181 31.3488C13.4095 31.4281 13.6202 31.4489 13.8234 31.4084C14.0266 31.368 14.2133 31.2682 14.3597 31.1217L19.9195 25.5619H21.7905V35.2ZM41.9048 23.4667H19.4857C19.2079 23.4668 18.9415 23.5772 18.745 23.7736L14.6667 27.8519V24.5143C14.6667 24.3767 14.6396 24.2405 14.5869 24.1134C14.5343 23.9863 14.4571 23.8708 14.3599 23.7735C14.2626 23.6762 14.1471 23.599 14.02 23.5464C13.8929 23.4937 13.7566 23.4667 13.619 23.4667H8.8V8.8H41.9048V23.4667Z" fill="black"></path><path d="M16.0233 18.5547L13.0494 13.4056" stroke="#519FDF" stroke-width="2" stroke-miterlimit="10" stroke-linecap="round" stroke-linejoin="round"></path><path d="M13.0494 18.5547L16.0233 13.4056" stroke="#519FDF" stroke-width="2" stroke-miterlimit="10" stroke-linecap="round" stroke-linejoin="round"></path><path d="M11.5625 15.9801H17.5102" stroke="#519FDF" stroke-width="2" stroke-miterlimit="10" stroke-linecap="round" stroke-linejoin="round"></path><path d="M23.4739 18.5547L26.4477 13.4056" stroke="#519FDF" stroke-width="2" stroke-miterlimit="10" stroke-linecap="round" stroke-linejoin="round"></path><path d="M26.4479 18.5547L23.474 13.4056" stroke="#519FDF" stroke-width="2" stroke-miterlimit="10" stroke-linecap="round" stroke-linejoin="round"></path><path d="M27.9348 15.9801H21.9871" stroke="#519FDF" stroke-width="2" stroke-miterlimit="10" stroke-linecap="round" stroke-linejoin="round"></path><path d="M36.9506 18.5476L33.9767 13.3985" stroke="#519FDF" stroke-width="2" stroke-miterlimit="10" stroke-linecap="round" stroke-linejoin="round"></path><path d="M33.9767 18.5476L36.9506 13.3985" stroke="#519FDF" stroke-width="2" stroke-miterlimit="10" stroke-linecap="round" stroke-linejoin="round"></path><path d="M38.4375 15.973H32.4897" stroke="#519FDF" stroke-width="2" stroke-miterlimit="10" stroke-linecap="round" stroke-linejoin="round"></path><path d="M14.0381 38.5524H9.84767C9.56982 38.5524 9.30336 38.6628 9.10689 38.8592C8.91042 39.0557 8.80005 39.3222 8.80005 39.6C8.80005 39.8778 8.91042 40.1443 9.10689 40.3408C9.30336 40.5372 9.56982 40.6476 9.84767 40.6476H14.0381C14.316 40.6476 14.5825 40.5372 14.7789 40.3408C14.9754 40.1443 15.0858 39.8778 15.0858 39.6C15.0858 39.3222 14.9754 39.0557 14.7789 38.8592C14.5825 38.6628 14.316 38.5524 14.0381 38.5524Z" fill="black"></path><path d="M9.84767 5.44762H14.0381C14.316 5.44762 14.5825 5.33724 14.7789 5.14078C14.9754 4.94431 15.0858 4.67784 15.0858 4.4C15.0858 4.12215 14.9754 3.85569 14.7789 3.65922C14.5825 3.46275 14.316 3.35238 14.0381 3.35238H9.84767C9.56982 3.35238 9.30336 3.46275 9.10689 3.65922C8.91042 3.85569 8.80005 4.12215 8.80005 4.4C8.80005 4.67784 8.91042 4.94431 9.10689 5.14078C9.30336 5.33724 9.56982 5.44762 9.84767 5.44762Z" fill="black"></path></svg>