<svg width="129" height="158" viewBox="0 0 129 158" fill="none" xmlns="http://www.w3.org/2000/svg">
<path d="M0.833333 3.5C0.833333 4.97276 2.02724 6.16667 3.5 6.16667C4.97276 6.16667 6.16667 4.97276 6.16667 3.5C6.16667 2.02724 4.97276 0.833333 3.5 0.833333C2.02724 0.833333 0.833333 2.02724 0.833333 3.5ZM53.5 91L53.5356 90.5013L53.5178 90.5H53.5V91ZM61 100.5H61.5V100.486L61.4992 100.472L61 100.5ZM61 117.5H60.5V117.545L60.5081 117.589L61 117.5ZM121.5 123V123.5H121.555L121.608 123.488L121.5 123ZM123.333 155C123.333 156.473 124.527 157.667 126 157.667C127.473 157.667 128.667 156.473 128.667 155C128.667 153.527 127.473 152.333 126 152.333C124.527 152.333 123.333 153.527 123.333 155ZM3 3.5V81H4V3.5H3ZM3 81C3 82.7139 3.3317 85.2922 4.34714 87.4619C5.36666 89.6404 7.13041 91.5 10 91.5V90.5C7.66959 90.5 6.18334 89.0263 5.25286 87.0381C4.3183 85.0411 4 82.6194 4 81H3ZM10 91.5H53.5V90.5H10V91.5ZM53.4644 91.4987C54.522 91.5743 56.1862 92.1051 57.6309 93.4753C59.0636 94.834 60.3072 97.0436 60.5008 100.528L61.4992 100.472C61.2928 96.7564 59.953 94.2993 58.3191 92.7497C56.6972 91.2116 54.8113 90.5924 53.5356 90.5013L53.4644 91.4987ZM60.5 100.5V117.5H61.5V100.5H60.5ZM60.5081 117.589C60.6889 118.584 61.2494 120.048 62.3537 121.272C63.4707 122.511 65.1426 123.5 67.5 123.5V122.5C65.4574 122.5 64.046 121.656 63.0963 120.603C62.1339 119.536 61.6445 118.25 61.4919 117.411L60.5081 117.589ZM67.5 123.5C67.5086 123.5 67.5173 123.5 67.5261 123.5C67.5349 123.5 67.5439 123.5 67.5529 123.5C67.5619 123.5 67.5711 123.5 67.5803 123.5C67.5896 123.5 67.5989 123.5 67.6084 123.5C67.6179 123.5 67.6275 123.5 67.6372 123.5C67.6469 123.5 67.6567 123.5 67.6666 123.5C67.6765 123.5 67.6865 123.5 67.6966 123.5C67.7068 123.5 67.717 123.5 67.7273 123.5C67.7377 123.5 67.7481 123.5 67.7587 123.5C67.7692 123.5 67.7799 123.5 67.7907 123.5C67.8015 123.5 67.8123 123.5 67.8233 123.5C67.8343 123.5 67.8454 123.5 67.8566 123.5C67.8678 123.5 67.8791 123.5 67.8905 123.5C67.902 123.5 67.9135 123.5 67.9251 123.5C67.9367 123.5 67.9485 123.5 67.9603 123.5C67.9722 123.5 67.9841 123.5 67.9961 123.5C68.0082 123.5 68.0203 123.5 68.0326 123.5C68.0449 123.5 68.0572 123.5 68.0697 123.5C68.0822 123.5 68.0947 123.5 68.1074 123.5C68.1201 123.5 68.1329 123.5 68.1458 123.5C68.1587 123.5 68.1716 123.5 68.1847 123.5C68.1978 123.5 68.211 123.5 68.2243 123.5C68.2376 123.5 68.251 123.5 68.2645 123.5C68.278 123.5 68.2916 123.5 68.3054 123.5C68.3191 123.5 68.3329 123.5 68.3468 123.5C68.3607 123.5 68.3747 123.5 68.3889 123.5C68.403 123.5 68.4172 123.5 68.4315 123.5C68.4458 123.5 68.4603 123.5 68.4748 123.5C68.4893 123.5 68.5039 123.5 68.5187 123.5C68.5334 123.5 68.5482 123.5 68.5632 123.5C68.5781 123.5 68.5931 123.5 68.6082 123.5C68.6234 123.5 68.6386 123.5 68.6539 123.5C68.6693 123.5 68.6847 123.5 68.7002 123.5C68.7157 123.5 68.7314 123.5 68.7471 123.5C68.7628 123.5 68.7786 123.5 68.7946 123.5C68.8105 123.5 68.8265 123.5 68.8426 123.5C68.8588 123.5 68.875 123.5 68.8913 123.5C68.9076 123.5 68.924 123.5 68.9405 123.5C68.9571 123.5 68.9737 123.5 68.9904 123.5C69.0071 123.5 69.0239 123.5 69.0408 123.5C69.0577 123.5 69.0747 123.5 69.0918 123.5C69.1089 123.5 69.1261 123.5 69.1434 123.5C69.1607 123.5 69.178 123.5 69.1955 123.5C69.213 123.5 69.2306 123.5 69.2482 123.5C69.2659 123.5 69.2837 123.5 69.3016 123.5C69.3194 123.5 69.3374 123.5 69.3554 123.5C69.3735 123.5 69.3916 123.5 69.4099 123.5C69.4281 123.5 69.4464 123.5 69.4649 123.5C69.4833 123.5 69.5018 123.5 69.5205 123.5C69.5391 123.5 69.5578 123.5 69.5766 123.5C69.5954 123.5 69.6143 123.5 69.6333 123.5C69.6523 123.5 69.6714 123.5 69.6906 123.5C69.7097 123.5 69.729 123.5 69.7484 123.5C69.7677 123.5 69.7872 123.5 69.8067 123.5C69.8263 123.5 69.8459 123.5 69.8657 123.5C69.8854 123.5 69.9052 123.5 69.9251 123.5C69.9451 123.5 69.9651 123.5 69.9852 123.5C70.0053 123.5 70.0255 123.5 70.0457 123.5C70.066 123.5 70.0864 123.5 70.1068 123.5C70.1273 123.5 70.1479 123.5 70.1685 123.5C70.1891 123.5 70.2099 123.5 70.2307 123.5C70.2515 123.5 70.2724 123.5 70.2934 123.5C70.3144 123.5 70.3355 123.5 70.3567 123.5C70.3779 123.5 70.3991 123.5 70.4205 123.5C70.4419 123.5 70.4633 123.5 70.4848 123.5C70.5064 123.5 70.528 123.5 70.5497 123.5C70.5714 123.5 70.5932 123.5 70.6151 123.5C70.637 123.5 70.659 123.5 70.681 123.5C70.7031 123.5 70.7252 123.5 70.7475 123.5C70.7697 123.5 70.792 123.5 70.8144 123.5C70.8368 123.5 70.8593 123.5 70.8819 123.5C70.9045 123.5 70.9272 123.5 70.9499 123.5C70.9727 123.5 70.9955 123.5 71.0184 123.5C71.0414 123.5 71.0644 123.5 71.0875 123.5C71.1106 123.5 71.1338 123.5 71.157 123.5C71.1803 123.5 71.2036 123.5 71.2271 123.5C71.2505 123.5 71.274 123.5 71.2976 123.5C71.3212 123.5 71.3449 123.5 71.3687 123.5C71.3925 123.5 71.4163 123.5 71.4403 123.5C71.4642 123.5 71.4882 123.5 71.5123 123.5C71.5365 123.5 71.5606 123.5 71.5849 123.5C71.6092 123.5 71.6335 123.5 71.658 123.5C71.6824 123.5 71.7069 123.5 71.7315 123.5C71.7561 123.5 71.7808 123.5 71.8056 123.5C71.8304 123.5 71.8552 123.5 71.8801 123.5C71.9051 123.5 71.9301 123.5 71.9552 123.5C71.9803 123.5 72.0054 123.5 72.0307 123.5C72.0559 123.5 72.0813 123.5 72.1067 123.5C72.1321 123.5 72.1576 123.5 72.1832 123.5C72.2088 123.5 72.2344 123.5 72.2601 123.5C72.2859 123.5 72.3117 123.5 72.3376 123.5C72.3635 123.5 72.3895 123.5 72.4155 123.5C72.4416 123.5 72.4677 123.5 72.4939 123.5C72.5201 123.5 72.5464 123.5 72.5728 123.5C72.5991 123.5 72.6256 123.5 72.6521 123.5C72.6786 123.5 72.7052 123.5 72.7319 123.5C72.7586 123.5 72.7853 123.5 72.8122 123.5C72.839 123.5 72.8659 123.5 72.8929 123.5C72.9199 123.5 72.947 123.5 72.9741 123.5C73.0013 123.5 73.0285 123.5 73.0558 123.5C73.0831 123.5 73.1104 123.5 73.1379 123.5C73.1653 123.5 73.1928 123.5 73.2204 123.5C73.248 123.5 73.2757 123.5 73.3035 123.5C73.3312 123.5 73.359 123.5 73.3869 123.5C73.4148 123.5 73.4428 123.5 73.4709 123.5C73.4989 123.5 73.527 123.5 73.5552 123.5C73.5834 123.5 73.6117 123.5 73.64 123.5C73.6684 123.5 73.6968 123.5 73.7253 123.5C73.7538 123.5 73.7824 123.5 73.811 123.5C73.8396 123.5 73.8684 123.5 73.8971 123.5C73.9259 123.5 73.9548 123.5 73.9837 123.5C74.0126 123.5 74.0416 123.5 74.0707 123.5C74.0998 123.5 74.1289 123.5 74.1582 123.5C74.1874 123.5 74.2167 123.5 74.246 123.5C74.2754 123.5 74.3048 123.5 74.3343 123.5C74.3638 123.5 74.3934 123.5 74.4231 123.5C74.4527 123.5 74.4824 123.5 74.5122 123.5C74.542 123.5 74.5719 123.5 74.6018 123.5C74.6317 123.5 74.6617 123.5 74.6918 123.5C74.7219 123.5 74.752 123.5 74.7822 123.5C74.8124 123.5 74.8427 123.5 74.873 123.5C74.9034 123.5 74.9338 123.5 74.9643 123.5C74.9948 123.5 75.0253 123.5 75.0559 123.5C75.0865 123.5 75.1172 123.5 75.148 123.5C75.1787 123.5 75.2096 123.5 75.2405 123.5C75.2714 123.5 75.3023 123.5 75.3333 123.5C75.3644 123.5 75.3955 123.5 75.4266 123.5C75.4578 123.5 75.489 123.5 75.5203 123.5C75.5516 123.5 75.583 123.5 75.6144 123.5C75.6458 123.5 75.6773 123.5 75.7089 123.5C75.7404 123.5 75.7721 123.5 75.8038 123.5C75.8354 123.5 75.8672 123.5 75.899 123.5C75.9308 123.5 75.9627 123.5 75.9947 123.5C76.0266 123.5 76.0587 123.5 76.0907 123.5C76.1228 123.5 76.155 123.5 76.1872 123.5C76.2194 123.5 76.2517 123.5 76.284 123.5C76.3163 123.5 76.3487 123.5 76.3812 123.5C76.4137 123.5 76.4462 123.5 76.4788 123.5C76.5114 123.5 76.544 123.5 76.5768 123.5C76.6095 123.5 76.6423 123.5 76.6751 123.5C76.7079 123.5 76.7408 123.5 76.7738 123.5C76.8068 123.5 76.8398 123.5 76.8729 123.5C76.906 123.5 76.9391 123.5 76.9724 123.5C77.0056 123.5 77.0389 123.5 77.0722 123.5C77.1055 123.5 77.1389 123.5 77.1724 123.5C77.2058 123.5 77.2394 123.5 77.2729 123.5C77.3065 123.5 77.3402 123.5 77.3739 123.5C77.4076 123.5 77.4413 123.5 77.4752 123.5C77.509 123.5 77.5429 123.5 77.5768 123.5C77.6107 123.5 77.6447 123.5 77.6788 123.5C77.7129 123.5 77.747 123.5 77.7811 123.5C77.8153 123.5 77.8496 123.5 77.8839 123.5C77.9181 123.5 77.9525 123.5 77.9869 123.5C78.0213 123.5 78.0558 123.5 78.0903 123.5C78.1248 123.5 78.1594 123.5 78.194 123.5C78.2287 123.5 78.2634 123.5 78.2981 123.5C78.3329 123.5 78.3677 123.5 78.4026 123.5C78.4374 123.5 78.4724 123.5 78.5073 123.5C78.5423 123.5 78.5774 123.5 78.6124 123.5C78.6475 123.5 78.6827 123.5 78.7179 123.5C78.7531 123.5 78.7884 123.5 78.8237 123.5C78.859 123.5 78.8944 123.5 78.9298 123.5C78.9652 123.5 79.0007 123.5 79.0362 123.5C79.0718 123.5 79.1073 123.5 79.143 123.5C79.1786 123.5 79.2143 123.5 79.2501 123.5C79.2858 123.5 79.3216 123.5 79.3575 123.5C79.3933 123.5 79.4293 123.5 79.4652 123.5C79.5012 123.5 79.5372 123.5 79.5733 123.5C79.6094 123.5 79.6455 123.5 79.6816 123.5C79.7178 123.5 79.7541 123.5 79.7903 123.5C79.8266 123.5 79.8629 123.5 79.8993 123.5C79.9357 123.5 79.9722 123.5 80.0086 123.5C80.0451 123.5 80.0817 123.5 80.1183 123.5C80.1548 123.5 80.1915 123.5 80.2282 123.5C80.2649 123.5 80.3016 123.5 80.3384 123.5C80.3752 123.5 80.412 123.5 80.4489 123.5C80.4858 123.5 80.5228 123.5 80.5598 123.5C80.5968 123.5 80.6338 123.5 80.6709 123.5C80.708 123.5 80.7451 123.5 80.7823 123.5C80.8195 123.5 80.8568 123.5 80.894 123.5C80.9313 123.5 80.9687 123.5 81.006 123.5C81.0434 123.5 81.0809 123.5 81.1183 123.5C81.1558 123.5 81.1934 123.5 81.2309 123.5C81.2685 123.5 81.3061 123.5 81.3438 123.5C81.3815 123.5 81.4192 123.5 81.457 123.5C81.4947 123.5 81.5325 123.5 81.5704 123.5C81.6083 123.5 81.6462 123.5 81.6841 123.5C81.7221 123.5 81.7601 123.5 81.7981 123.5C81.8362 123.5 81.8743 123.5 81.9124 123.5C81.9505 123.5 81.9887 123.5 82.0269 123.5C82.0652 123.5 82.1034 123.5 82.1418 123.5C82.1801 123.5 82.2184 123.5 82.2568 123.5C82.2952 123.5 82.3337 123.5 82.3722 123.5C82.4107 123.5 82.4492 123.5 82.4878 123.5C82.5264 123.5 82.565 123.5 82.6037 123.5C82.6424 123.5 82.6811 123.5 82.7198 123.5C82.7586 123.5 82.7974 123.5 82.8362 123.5C82.8751 123.5 82.914 123.5 82.9529 123.5C82.9918 123.5 83.0308 123.5 83.0698 123.5C83.1088 123.5 83.1479 123.5 83.187 123.5C83.2261 123.5 83.2652 123.5 83.3044 123.5C83.3436 123.5 83.3828 123.5 83.422 123.5C83.4613 123.5 83.5006 123.5 83.5399 123.5C83.5793 123.5 83.6187 123.5 83.6581 123.5C83.6975 123.5 83.737 123.5 83.7765 123.5C83.816 123.5 83.8556 123.5 83.8951 123.5C83.9347 123.5 83.9743 123.5 84.014 123.5C84.0537 123.5 84.0934 123.5 84.1331 123.5C84.1729 123.5 84.2126 123.5 84.2525 123.5C84.2923 123.5 84.3321 123.5 84.372 123.5C84.4119 123.5 84.4519 123.5 84.4919 123.5C84.5318 123.5 84.5718 123.5 84.6119 123.5C84.6519 123.5 84.692 123.5 84.7321 123.5C84.7723 123.5 84.8124 123.5 84.8526 123.5C84.8928 123.5 84.9331 123.5 84.9733 123.5C85.0136 123.5 85.0539 123.5 85.0943 123.5C85.1346 123.5 85.175 123.5 85.2154 123.5C85.2558 123.5 85.2963 123.5 85.3368 123.5C85.3772 123.5 85.4178 123.5 85.4583 123.5C85.4989 123.5 85.5395 123.5 85.5801 123.5C85.6207 123.5 85.6614 123.5 85.7021 123.5C85.7428 123.5 85.7835 123.5 85.8243 123.5C85.8651 123.5 85.9059 123.5 85.9467 123.5C85.9875 123.5 86.0284 123.5 86.0693 123.5C86.1102 123.5 86.1512 123.5 86.1921 123.5C86.2331 123.5 86.2741 123.5 86.3151 123.5C86.3562 123.5 86.3972 123.5 86.4383 123.5C86.4794 123.5 86.5206 123.5 86.5617 123.5C86.6029 123.5 86.6441 123.5 86.6853 123.5C86.7265 123.5 86.7678 123.5 86.8091 123.5C86.8504 123.5 86.8917 123.5 86.9331 123.5C86.9744 123.5 87.0158 123.5 87.0572 123.5C87.0986 123.5 87.1401 123.5 87.1816 123.5C87.223 123.5 87.2645 123.5 87.3061 123.5C87.3476 123.5 87.3892 123.5 87.4308 123.5C87.4724 123.5 87.514 123.5 87.5557 123.5C87.5973 123.5 87.639 123.5 87.6807 123.5C87.7224 123.5 87.7642 123.5 87.806 123.5C87.8477 123.5 87.8895 123.5 87.9314 123.5C87.9732 123.5 88.015 123.5 88.0569 123.5C88.0988 123.5 88.1407 123.5 88.1827 123.5C88.2246 123.5 88.2666 123.5 88.3086 123.5C88.3506 123.5 88.3926 123.5 88.4346 123.5C88.4767 123.5 88.5188 123.5 88.5609 123.5C88.603 123.5 88.6451 123.5 88.6873 123.5C88.7294 123.5 88.7716 123.5 88.8138 123.5C88.856 123.5 88.8983 123.5 88.9405 123.5C88.9828 123.5 89.0251 123.5 89.0674 123.5C89.1097 123.5 89.152 123.5 89.1944 123.5C89.2367 123.5 89.2791 123.5 89.3215 123.5C89.364 123.5 89.4064 123.5 89.4488 123.5C89.4913 123.5 89.5338 123.5 89.5763 123.5C89.6188 123.5 89.6613 123.5 89.7039 123.5C89.7464 123.5 89.789 123.5 89.8316 123.5C89.8742 123.5 89.9168 123.5 89.9595 123.5C90.0021 123.5 90.0448 123.5 90.0875 123.5C90.1302 123.5 90.1729 123.5 90.2156 123.5C90.2584 123.5 90.3011 123.5 90.3439 123.5C90.3867 123.5 90.4295 123.5 90.4723 123.5C90.5152 123.5 90.558 123.5 90.6009 123.5C90.6437 123.5 90.6866 123.5 90.7295 123.5C90.7724 123.5 90.8154 123.5 90.8583 123.5C90.9013 123.5 90.9442 123.5 90.9872 123.5C91.0302 123.5 91.0732 123.5 91.1162 123.5C91.1593 123.5 91.2023 123.5 91.2454 123.5C91.2885 123.5 91.3315 123.5 91.3746 123.5C91.4178 123.5 91.4609 123.5 91.504 123.5C91.5472 123.5 91.5903 123.5 91.6335 123.5C91.6767 123.5 91.7199 123.5 91.7631 123.5C91.8063 123.5 91.8496 123.5 91.8928 123.5C91.9361 123.5 91.9793 123.5 92.0226 123.5C92.0659 123.5 92.1092 123.5 92.1525 123.5C92.1959 123.5 92.2392 123.5 92.2826 123.5C92.3259 123.5 92.3693 123.5 92.4127 123.5C92.4561 123.5 92.4995 123.5 92.5429 123.5C92.5863 123.5 92.6297 123.5 92.6732 123.5C92.7166 123.5 92.7601 123.5 92.8036 123.5C92.8471 123.5 92.8906 123.5 92.9341 123.5C92.9776 123.5 93.0211 123.5 93.0647 123.5C93.1082 123.5 93.1518 123.5 93.1953 123.5C93.2389 123.5 93.2825 123.5 93.3261 123.5C93.3697 123.5 93.4133 123.5 93.4569 123.5C93.5006 123.5 93.5442 123.5 93.5879 123.5C93.6315 123.5 93.6752 123.5 93.7188 123.5C93.7625 123.5 93.8062 123.5 93.8499 123.5C93.8936 123.5 93.9373 123.5 93.9811 123.5C94.0248 123.5 94.0685 123.5 94.1123 123.5C94.156 123.5 94.1998 123.5 94.2436 123.5C94.2874 123.5 94.3311 123.5 94.3749 123.5C94.4187 123.5 94.4625 123.5 94.5064 123.5C94.5502 123.5 94.594 123.5 94.6379 123.5C94.6817 123.5 94.7255 123.5 94.7694 123.5C94.8133 123.5 94.8571 123.5 94.901 123.5C94.9449 123.5 94.9888 123.5 95.0327 123.5C95.0766 123.5 95.1205 123.5 95.1644 123.5C95.2083 123.5 95.2523 123.5 95.2962 123.5C95.3401 123.5 95.3841 123.5 95.428 123.5C95.472 123.5 95.5159 123.5 95.5599 123.5C95.6039 123.5 95.6479 123.5 95.6918 123.5C95.7358 123.5 95.7798 123.5 95.8238 123.5C95.8678 123.5 95.9118 123.5 95.9558 123.5C95.9998 123.5 96.0439 123.5 96.0879 123.5C96.1319 123.5 96.176 123.5 96.22 123.5C96.264 123.5 96.3081 123.5 96.3521 123.5C96.3962 123.5 96.4402 123.5 96.4843 123.5C96.5284 123.5 96.5724 123.5 96.6165 123.5C96.6606 123.5 96.7047 123.5 96.7487 123.5C96.7928 123.5 96.8369 123.5 96.881 123.5C96.9251 123.5 96.9692 123.5 97.0133 123.5C97.0574 123.5 97.1015 123.5 97.1456 123.5C97.1897 123.5 97.2338 123.5 97.278 123.5C97.3221 123.5 97.3662 123.5 97.4103 123.5C97.4545 123.5 97.4986 123.5 97.5427 123.5C97.5868 123.5 97.631 123.5 97.6751 123.5C97.7192 123.5 97.7634 123.5 97.8075 123.5C97.8517 123.5 97.8958 123.5 97.9399 123.5C97.9841 123.5 98.0282 123.5 98.0724 123.5C98.1165 123.5 98.1607 123.5 98.2048 123.5C98.249 123.5 98.2931 123.5 98.3373 123.5C98.3814 123.5 98.4256 123.5 98.4697 123.5C98.5139 123.5 98.558 123.5 98.6022 123.5C98.6463 123.5 98.6905 123.5 98.7346 123.5C98.7788 123.5 98.8229 123.5 98.8671 123.5C98.9112 123.5 98.9554 123.5 98.9995 123.5C99.0437 123.5 99.0878 123.5 99.132 123.5C99.1761 123.5 99.2203 123.5 99.2644 123.5C99.3086 123.5 99.3527 123.5 99.3969 123.5C99.441 123.5 99.4851 123.5 99.5293 123.5C99.5734 123.5 99.6175 123.5 99.6617 123.5C99.7058 123.5 99.7499 123.5 99.794 123.5C99.8382 123.5 99.8823 123.5 99.9264 123.5C99.9705 123.5 100.015 123.5 100.059 123.5C100.103 123.5 100.147 123.5 100.191 123.5C100.235 123.5 100.279 123.5 100.323 123.5C100.367 123.5 100.412 123.5 100.456 123.5C100.5 123.5 100.544 123.5 100.588 123.5C100.632 123.5 100.676 123.5 100.72 123.5C100.764 123.5 100.808 123.5 100.852 123.5C100.896 123.5 100.94 123.5 100.984 123.5C101.028 123.5 101.072 123.5 101.117 123.5C101.161 123.5 101.205 123.5 101.249 123.5C101.293 123.5 101.337 123.5 101.381 123.5C101.425 123.5 101.469 123.5 101.513 123.5C101.557 123.5 101.601 123.5 101.645 123.5C101.688 123.5 101.732 123.5 101.776 123.5C101.82 123.5 101.864 123.5 101.908 123.5C101.952 123.5 101.996 123.5 102.04 123.5C102.084 123.5 102.128 123.5 102.172 123.5C102.216 123.5 102.26 123.5 102.303 123.5C102.347 123.5 102.391 123.5 102.435 123.5C102.479 123.5 102.523 123.5 102.567 123.5C102.61 123.5 102.654 123.5 102.698 123.5C102.742 123.5 102.786 123.5 102.83 123.5C102.873 123.5 102.917 123.5 102.961 123.5C103.005 123.5 103.048 123.5 103.092 123.5C103.136 123.5 103.18 123.5 103.223 123.5C103.267 123.5 103.311 123.5 103.355 123.5C103.398 123.5 103.442 123.5 103.486 123.5C103.529 123.5 103.573 123.5 103.617 123.5C103.66 123.5 103.704 123.5 103.748 123.5C103.791 123.5 103.835 123.5 103.878 123.5C103.922 123.5 103.966 123.5 104.009 123.5C104.053 123.5 104.096 123.5 104.14 123.5C104.183 123.5 104.227 123.5 104.271 123.5C104.314 123.5 104.358 123.5 104.401 123.5C104.444 123.5 104.488 123.5 104.531 123.5C104.575 123.5 104.618 123.5 104.662 123.5C104.705 123.5 104.749 123.5 104.792 123.5C104.835 123.5 104.879 123.5 104.922 123.5C104.965 123.5 105.009 123.5 105.052 123.5C105.095 123.5 105.139 123.5 105.182 123.5C105.225 123.5 105.269 123.5 105.312 123.5C105.355 123.5 105.398 123.5 105.442 123.5C105.485 123.5 105.528 123.5 105.571 123.5C105.614 123.5 105.658 123.5 105.701 123.5C105.744 123.5 105.787 123.5 105.83 123.5C105.873 123.5 105.916 123.5 105.959 123.5C106.002 123.5 106.045 123.5 106.089 123.5C106.132 123.5 106.175 123.5 106.218 123.5C106.261 123.5 106.304 123.5 106.346 123.5C106.389 123.5 106.432 123.5 106.475 123.5C106.518 123.5 106.561 123.5 106.604 123.5C106.647 123.5 106.69 123.5 106.733 123.5C106.775 123.5 106.818 123.5 106.861 123.5C106.904 123.5 106.946 123.5 106.989 123.5C107.032 123.5 107.075 123.5 107.117 123.5C107.16 123.5 107.203 123.5 107.245 123.5C107.288 123.5 107.331 123.5 107.373 123.5C107.416 123.5 107.458 123.5 107.501 123.5C107.544 123.5 107.586 123.5 107.629 123.5C107.671 123.5 107.714 123.5 107.756 123.5C107.799 123.5 107.841 123.5 107.883 123.5C107.926 123.5 107.968 123.5 108.011 123.5C108.053 123.5 108.095 123.5 108.138 123.5C108.18 123.5 108.222 123.5 108.265 123.5C108.307 123.5 108.349 123.5 108.391 123.5C108.433 123.5 108.476 123.5 108.518 123.5C108.56 123.5 108.602 123.5 108.644 123.5C108.686 123.5 108.728 123.5 108.77 123.5C108.813 123.5 108.855 123.5 108.897 123.5C108.939 123.5 108.981 123.5 109.022 123.5C109.064 123.5 109.106 123.5 109.148 123.5C109.19 123.5 109.232 123.5 109.274 123.5C109.316 123.5 109.357 123.5 109.399 123.5C109.441 123.5 109.483 123.5 109.525 123.5C109.566 123.5 109.608 123.5 109.65 123.5C109.691 123.5 109.733 123.5 109.774 123.5C109.816 123.5 109.858 123.5 109.899 123.5C109.941 123.5 109.982 123.5 110.024 123.5C110.065 123.5 110.107 123.5 110.148 123.5C110.19 123.5 110.231 123.5 110.272 123.5C110.314 123.5 110.355 123.5 110.396 123.5C110.438 123.5 110.479 123.5 110.52 123.5C110.561 123.5 110.603 123.5 110.644 123.5C110.685 123.5 110.726 123.5 110.767 123.5C110.808 123.5 110.849 123.5 110.89 123.5C110.931 123.5 110.972 123.5 111.013 123.5C111.054 123.5 111.095 123.5 111.136 123.5C111.177 123.5 111.218 123.5 111.259 123.5C111.3 123.5 111.34 123.5 111.381 123.5C111.422 123.5 111.463 123.5 111.504 123.5C111.544 123.5 111.585 123.5 111.626 123.5C111.666 123.5 111.707 123.5 111.747 123.5C111.788 123.5 111.828 123.5 111.869 123.5C111.909 123.5 111.95 123.5 111.99 123.5C112.031 123.5 112.071 123.5 112.111 123.5C112.152 123.5 112.192 123.5 112.232 123.5C112.273 123.5 112.313 123.5 112.353 123.5C112.393 123.5 112.434 123.5 112.474 123.5C112.514 123.5 112.554 123.5 112.594 123.5C112.634 123.5 112.674 123.5 112.714 123.5C112.754 123.5 112.794 123.5 112.834 123.5C112.874 123.5 112.914 123.5 112.953 123.5C112.993 123.5 113.033 123.5 113.073 123.5C113.113 123.5 113.152 123.5 113.192 123.5C113.232 123.5 113.271 123.5 113.311 123.5C113.35 123.5 113.39 123.5 113.43 123.5C113.469 123.5 113.509 123.5 113.548 123.5C113.587 123.5 113.627 123.5 113.666 123.5C113.705 123.5 113.745 123.5 113.784 123.5C113.823 123.5 113.863 123.5 113.902 123.5C113.941 123.5 113.98 123.5 114.019 123.5C114.058 123.5 114.097 123.5 114.136 123.5C114.175 123.5 114.214 123.5 114.253 123.5C114.292 123.5 114.331 123.5 114.37 123.5C114.409 123.5 114.448 123.5 114.486 123.5C114.525 123.5 114.564 123.5 114.603 123.5C114.641 123.5 114.68 123.5 114.719 123.5C114.757 123.5 114.796 123.5 114.834 123.5C114.873 123.5 114.911 123.5 114.95 123.5C114.988 123.5 115.026 123.5 115.065 123.5C115.103 123.5 115.141 123.5 115.18 123.5C115.218 123.5 115.256 123.5 115.294 123.5C115.332 123.5 115.37 123.5 115.408 123.5C115.446 123.5 115.484 123.5 115.522 123.5C115.56 123.5 115.598 123.5 115.636 123.5C115.674 123.5 115.712 123.5 115.75 123.5C115.787 123.5 115.825 123.5 115.863 123.5C115.901 123.5 115.938 123.5 115.976 123.5C116.013 123.5 116.051 123.5 116.088 123.5C116.126 123.5 116.163 123.5 116.201 123.5C116.238 123.5 116.275 123.5 116.313 123.5C116.35 123.5 116.387 123.5 116.425 123.5C116.462 123.5 116.499 123.5 116.536 123.5C116.573 123.5 116.61 123.5 116.647 123.5C116.684 123.5 116.721 123.5 116.758 123.5C116.795 123.5 116.832 123.5 116.869 123.5C116.905 123.5 116.942 123.5 116.979 123.5C117.016 123.5 117.052 123.5 117.089 123.5C117.125 123.5 117.162 123.5 117.198 123.5C117.235 123.5 117.271 123.5 117.308 123.5C117.344 123.5 117.381 123.5 117.417 123.5C117.453 123.5 117.489 123.5 117.526 123.5C117.562 123.5 117.598 123.5 117.634 123.5C117.67 123.5 117.706 123.5 117.742 123.5C117.778 123.5 117.814 123.5 117.85 123.5C117.886 123.5 117.922 123.5 117.957 123.5C117.993 123.5 118.029 123.5 118.064 123.5C118.1 123.5 118.136 123.5 118.171 123.5C118.207 123.5 118.242 123.5 118.278 123.5C118.313 123.5 118.349 123.5 118.384 123.5C118.419 123.5 118.454 123.5 118.49 123.5C118.525 123.5 118.56 123.5 118.595 123.5C118.63 123.5 118.665 123.5 118.7 123.5C118.735 123.5 118.77 123.5 118.805 123.5C118.84 123.5 118.875 123.5 118.91 123.5C118.944 123.5 118.979 123.5 119.014 123.5C119.048 123.5 119.083 123.5 119.118 123.5C119.152 123.5 119.187 123.5 119.221 123.5C119.255 123.5 119.29 123.5 119.324 123.5C119.358 123.5 119.393 123.5 119.427 123.5C119.461 123.5 119.495 123.5 119.529 123.5C119.563 123.5 119.597 123.5 119.631 123.5C119.665 123.5 119.699 123.5 119.733 123.5C119.767 123.5 119.801 123.5 119.834 123.5C119.868 123.5 119.902 123.5 119.935 123.5C119.969 123.5 120.002 123.5 120.036 123.5C120.069 123.5 120.103 123.5 120.136 123.5C120.169 123.5 120.203 123.5 120.236 123.5C120.269 123.5 120.302 123.5 120.335 123.5C120.369 123.5 120.402 123.5 120.435 123.5C120.468 123.5 120.5 123.5 120.533 123.5C120.566 123.5 120.599 123.5 120.632 123.5C120.664 123.5 120.697 123.5 120.73 123.5C120.762 123.5 120.795 123.5 120.827 123.5C120.86 123.5 120.892 123.5 120.925 123.5C120.957 123.5 120.989 123.5 121.021 123.5C121.054 123.5 121.086 123.5 121.118 123.5C121.15 123.5 121.182 123.5 121.214 123.5C121.246 123.5 121.278 123.5 121.31 123.5C121.342 123.5 121.373 123.5 121.405 123.5C121.437 123.5 121.468 123.5 121.5 123.5V122.5C121.468 122.5 121.437 122.5 121.405 122.5C121.373 122.5 121.342 122.5 121.31 122.5C121.278 122.5 121.246 122.5 121.214 122.5C121.182 122.5 121.15 122.5 121.118 122.5C121.086 122.5 121.054 122.5 121.021 122.5C120.989 122.5 120.957 122.5 120.925 122.5C120.892 122.5 120.86 122.5 120.827 122.5C120.795 122.5 120.762 122.5 120.73 122.5C120.697 122.5 120.664 122.5 120.632 122.5C120.599 122.5 120.566 122.5 120.533 122.5C120.5 122.5 120.468 122.5 120.435 122.5C120.402 122.5 120.369 122.5 120.335 122.5C120.302 122.5 120.269 122.5 120.236 122.5C120.203 122.5 120.169 122.5 120.136 122.5C120.103 122.5 120.069 122.5 120.036 122.5C120.002 122.5 119.969 122.5 119.935 122.5C119.902 122.5 119.868 122.5 119.834 122.5C119.801 122.5 119.767 122.5 119.733 122.5C119.699 122.5 119.665 122.5 119.631 122.5C119.597 122.5 119.563 122.5 119.529 122.5C119.495 122.5 119.461 122.5 119.427 122.5C119.393 122.5 119.358 122.5 119.324 122.5C119.29 122.5 119.255 122.5 119.221 122.5C119.187 122.5 119.152 122.5 119.118 122.5C119.083 122.5 119.048 122.5 119.014 122.5C118.979 122.5 118.944 122.5 118.91 122.5C118.875 122.5 118.84 122.5 118.805 122.5C118.77 122.5 118.735 122.5 118.7 122.5C118.665 122.5 118.63 122.5 118.595 122.5C118.56 122.5 118.525 122.5 118.49 122.5C118.454 122.5 118.419 122.5 118.384 122.5C118.349 122.5 118.313 122.5 118.278 122.5C118.242 122.5 118.207 122.5 118.171 122.5C118.136 122.5 118.1 122.5 118.064 122.5C118.029 122.5 117.993 122.5 117.957 122.5C117.922 122.5 117.886 122.5 117.85 122.5C117.814 122.5 117.778 122.5 117.742 122.5C117.706 122.5 117.67 122.5 117.634 122.5C117.598 122.5 117.562 122.5 117.526 122.5C117.489 122.5 117.453 122.5 117.417 122.5C117.381 122.5 117.344 122.5 117.308 122.5C117.271 122.5 117.235 122.5 117.198 122.5C117.162 122.5 117.125 122.5 117.089 122.5C117.052 122.5 117.016 122.5 116.979 122.5C116.942 122.5 116.905 122.5 116.869 122.5C116.832 122.5 116.795 122.5 116.758 122.5C116.721 122.5 116.684 122.5 116.647 122.5C116.61 122.5 116.573 122.5 116.536 122.5C116.499 122.5 116.462 122.5 116.425 122.5C116.387 122.5 116.35 122.5 116.313 122.5C116.275 122.5 116.238 122.5 116.201 122.5C116.163 122.5 116.126 122.5 116.088 122.5C116.051 122.5 116.013 122.5 115.976 122.5C115.938 122.5 115.901 122.5 115.863 122.5C115.825 122.5 115.787 122.5 115.75 122.5C115.712 122.5 115.674 122.5 115.636 122.5C115.598 122.5 115.56 122.5 115.522 122.5C115.484 122.5 115.446 122.5 115.408 122.5C115.37 122.5 115.332 122.5 115.294 122.5C115.256 122.5 115.218 122.5 115.18 122.5C115.141 122.5 115.103 122.5 115.065 122.5C115.026 122.5 114.988 122.5 114.95 122.5C114.911 122.5 114.873 122.5 114.834 122.5C114.796 122.5 114.757 122.5 114.719 122.5C114.68 122.5 114.641 122.5 114.603 122.5C114.564 122.5 114.525 122.5 114.486 122.5C114.448 122.5 114.409 122.5 114.37 122.5C114.331 122.5 114.292 122.5 114.253 122.5C114.214 122.5 114.175 122.5 114.136 122.5C114.097 122.5 114.058 122.5 114.019 122.5C113.98 122.5 113.941 122.5 113.902 122.5C113.863 122.5 113.823 122.5 113.784 122.5C113.745 122.5 113.705 122.5 113.666 122.5C113.627 122.5 113.587 122.5 113.548 122.5C113.509 122.5 113.469 122.5 113.43 122.5C113.39 122.5 113.35 122.5 113.311 122.5C113.271 122.5 113.232 122.5 113.192 122.5C113.152 122.5 113.113 122.5 113.073 122.5C113.033 122.5 112.993 122.5 112.953 122.5C112.914 122.5 112.874 122.5 112.834 122.5C112.794 122.5 112.754 122.5 112.714 122.5C112.674 122.5 112.634 122.5 112.594 122.5C112.554 122.5 112.514 122.5 112.474 122.5C112.434 122.5 112.393 122.5 112.353 122.5C112.313 122.5 112.273 122.5 112.232 122.5C112.192 122.5 112.152 122.5 112.111 122.5C112.071 122.5 112.031 122.5 111.99 122.5C111.95 122.5 111.909 122.5 111.869 122.5C111.828 122.5 111.788 122.5 111.747 122.5C111.707 122.5 111.666 122.5 111.626 122.5C111.585 122.5 111.544 122.5 111.504 122.5C111.463 122.5 111.422 122.5 111.381 122.5C111.34 122.5 111.3 122.5 111.259 122.5C111.218 122.5 111.177 122.5 111.136 122.5C111.095 122.5 111.054 122.5 111.013 122.5C110.972 122.5 110.931 122.5 110.89 122.5C110.849 122.5 110.808 122.5 110.767 122.5C110.726 122.5 110.685 122.5 110.644 122.5C110.603 122.5 110.561 122.5 110.52 122.5C110.479 122.5 110.438 122.5 110.396 122.5C110.355 122.5 110.314 122.5 110.272 122.5C110.231 122.5 110.19 122.5 110.148 122.5C110.107 122.5 110.065 122.5 110.024 122.5C109.982 122.5 109.941 122.5 109.899 122.5C109.858 122.5 109.816 122.5 109.774 122.5C109.733 122.5 109.691 122.5 109.65 122.5C109.608 122.5 109.566 122.5 109.525 122.5C109.483 122.5 109.441 122.5 109.399 122.5C109.357 122.5 109.316 122.5 109.274 122.5C109.232 122.5 109.19 122.5 109.148 122.5C109.106 122.5 109.064 122.5 109.022 122.5C108.981 122.5 108.939 122.5 108.897 122.5C108.855 122.5 108.813 122.5 108.77 122.5C108.728 122.5 108.686 122.5 108.644 122.5C108.602 122.5 108.56 122.5 108.518 122.5C108.476 122.5 108.433 122.5 108.391 122.5C108.349 122.5 108.307 122.5 108.265 122.5C108.222 122.5 108.18 122.5 108.138 122.5C108.095 122.5 108.053 122.5 108.011 122.5C107.968 122.5 107.926 122.5 107.883 122.5C107.841 122.5 107.799 122.5 107.756 122.5C107.714 122.5 107.671 122.5 107.629 122.5C107.586 122.5 107.544 122.5 107.501 122.5C107.458 122.5 107.416 122.5 107.373 122.5C107.331 122.5 107.288 122.5 107.245 122.5C107.203 122.5 107.16 122.5 107.117 122.5C107.075 122.5 107.032 122.5 106.989 122.5C106.946 122.5 106.904 122.5 106.861 122.5C106.818 122.5 106.775 122.5 106.733 122.5C106.69 122.5 106.647 122.5 106.604 122.5C106.561 122.5 106.518 122.5 106.475 122.5C106.432 122.5 106.389 122.5 106.346 122.5C106.304 122.5 106.261 122.5 106.218 122.5C106.175 122.5 106.132 122.5 106.089 122.5C106.045 122.5 106.002 122.5 105.959 122.5C105.916 122.5 105.873 122.5 105.83 122.5C105.787 122.5 105.744 122.5 105.701 122.5C105.658 122.5 105.614 122.5 105.571 122.5C105.528 122.5 105.485 122.5 105.442 122.5C105.398 122.5 105.355 122.5 105.312 122.5C105.269 122.5 105.225 122.5 105.182 122.5C105.139 122.5 105.095 122.5 105.052 122.5C105.009 122.5 104.965 122.5 104.922 122.5C104.879 122.5 104.835 122.5 104.792 122.5C104.749 122.5 104.705 122.5 104.662 122.5C104.618 122.5 104.575 122.5 104.531 122.5C104.488 122.5 104.444 122.5 104.401 122.5C104.358 122.5 104.314 122.5 104.271 122.5C104.227 122.5 104.183 122.5 104.14 122.5C104.096 122.5 104.053 122.5 104.009 122.5C103.966 122.5 103.922 122.5 103.878 122.5C103.835 122.5 103.791 122.5 103.748 122.5C103.704 122.5 103.66 122.5 103.617 122.5C103.573 122.5 103.529 122.5 103.486 122.5C103.442 122.5 103.398 122.5 103.355 122.5C103.311 122.5 103.267 122.5 103.223 122.5C103.18 122.5 103.136 122.5 103.092 122.5C103.048 122.5 103.005 122.5 102.961 122.5C102.917 122.5 102.873 122.5 102.83 122.5C102.786 122.5 102.742 122.5 102.698 122.5C102.654 122.5 102.61 122.5 102.567 122.5C102.523 122.5 102.479 122.5 102.435 122.5C102.391 122.5 102.347 122.5 102.303 122.5C102.26 122.5 102.216 122.5 102.172 122.5C102.128 122.5 102.084 122.5 102.04 122.5C101.996 122.5 101.952 122.5 101.908 122.5C101.864 122.5 101.82 122.5 101.776 122.5C101.732 122.5 101.688 122.5 101.645 122.5C101.601 122.5 101.557 122.5 101.513 122.5C101.469 122.5 101.425 122.5 101.381 122.5C101.337 122.5 101.293 122.5 101.249 122.5C101.205 122.5 101.161 122.5 101.117 122.5C101.072 122.5 101.028 122.5 100.984 122.5C100.94 122.5 100.896 122.5 100.852 122.5C100.808 122.5 100.764 122.5 100.72 122.5C100.676 122.5 100.632 122.5 100.588 122.5C100.544 122.5 100.5 122.5 100.456 122.5C100.412 122.5 100.367 122.5 100.323 122.5C100.279 122.5 100.235 122.5 100.191 122.5C100.147 122.5 100.103 122.5 100.059 122.5C100.015 122.5 99.9705 122.5 99.9264 122.5C99.8823 122.5 99.8382 122.5 99.794 122.5C99.7499 122.5 99.7058 122.5 99.6617 122.5C99.6175 122.5 99.5734 122.5 99.5293 122.5C99.4851 122.5 99.441 122.5 99.3969 122.5C99.3527 122.5 99.3086 122.5 99.2644 122.5C99.2203 122.5 99.1761 122.5 99.132 122.5C99.0878 122.5 99.0437 122.5 98.9995 122.5C98.9554 122.5 98.9112 122.5 98.8671 122.5C98.8229 122.5 98.7788 122.5 98.7346 122.5C98.6905 122.5 98.6463 122.5 98.6022 122.5C98.558 122.5 98.5139 122.5 98.4697 122.5C98.4256 122.5 98.3814 122.5 98.3373 122.5C98.2931 122.5 98.249 122.5 98.2048 122.5C98.1607 122.5 98.1165 122.5 98.0724 122.5C98.0282 122.5 97.9841 122.5 97.9399 122.5C97.8958 122.5 97.8517 122.5 97.8075 122.5C97.7634 122.5 97.7192 122.5 97.6751 122.5C97.631 122.5 97.5868 122.5 97.5427 122.5C97.4986 122.5 97.4545 122.5 97.4103 122.5C97.3662 122.5 97.3221 122.5 97.278 122.5C97.2338 122.5 97.1897 122.5 97.1456 122.5C97.1015 122.5 97.0574 122.5 97.0133 122.5C96.9692 122.5 96.9251 122.5 96.881 122.5C96.8369 122.5 96.7928 122.5 96.7487 122.5C96.7047 122.5 96.6606 122.5 96.6165 122.5C96.5724 122.5 96.5284 122.5 96.4843 122.5C96.4402 122.5 96.3962 122.5 96.3521 122.5C96.3081 122.5 96.264 122.5 96.22 122.5C96.176 122.5 96.1319 122.5 96.0879 122.5C96.0439 122.5 95.9998 122.5 95.9558 122.5C95.9118 122.5 95.8678 122.5 95.8238 122.5C95.7798 122.5 95.7358 122.5 95.6918 122.5C95.6479 122.5 95.6039 122.5 95.5599 122.5C95.5159 122.5 95.472 122.5 95.428 122.5C95.3841 122.5 95.3401 122.5 95.2962 122.5C95.2523 122.5 95.2083 122.5 95.1644 122.5C95.1205 122.5 95.0766 122.5 95.0327 122.5C94.9888 122.5 94.9449 122.5 94.901 122.5C94.8571 122.5 94.8133 122.5 94.7694 122.5C94.7255 122.5 94.6817 122.5 94.6379 122.5C94.594 122.5 94.5502 122.5 94.5064 122.5C94.4625 122.5 94.4187 122.5 94.3749 122.5C94.3311 122.5 94.2874 122.5 94.2436 122.5C94.1998 122.5 94.156 122.5 94.1123 122.5C94.0685 122.5 94.0248 122.5 93.9811 122.5C93.9373 122.5 93.8936 122.5 93.8499 122.5C93.8062 122.5 93.7625 122.5 93.7188 122.5C93.6752 122.5 93.6315 122.5 93.5879 122.5C93.5442 122.5 93.5006 122.5 93.4569 122.5C93.4133 122.5 93.3697 122.5 93.3261 122.5C93.2825 122.5 93.2389 122.5 93.1953 122.5C93.1518 122.5 93.1082 122.5 93.0647 122.5C93.0211 122.5 92.9776 122.5 92.9341 122.5C92.8906 122.5 92.8471 122.5 92.8036 122.5C92.7601 122.5 92.7166 122.5 92.6732 122.5C92.6297 122.5 92.5863 122.5 92.5429 122.5C92.4995 122.5 92.4561 122.5 92.4127 122.5C92.3693 122.5 92.3259 122.5 92.2826 122.5C92.2392 122.5 92.1959 122.5 92.1525 122.5C92.1092 122.5 92.0659 122.5 92.0226 122.5C91.9793 122.5 91.9361 122.5 91.8928 122.5C91.8496 122.5 91.8063 122.5 91.7631 122.5C91.7199 122.5 91.6767 122.5 91.6335 122.5C91.5903 122.5 91.5472 122.5 91.504 122.5C91.4609 122.5 91.4178 122.5 91.3746 122.5C91.3315 122.5 91.2885 122.5 91.2454 122.5C91.2023 122.5 91.1593 122.5 91.1162 122.5C91.0732 122.5 91.0302 122.5 90.9872 122.5C90.9442 122.5 90.9013 122.5 90.8583 122.5C90.8154 122.5 90.7724 122.5 90.7295 122.5C90.6866 122.5 90.6437 122.5 90.6009 122.5C90.558 122.5 90.5152 122.5 90.4723 122.5C90.4295 122.5 90.3867 122.5 90.3439 122.5C90.3011 122.5 90.2584 122.5 90.2156 122.5C90.1729 122.5 90.1302 122.5 90.0875 122.5C90.0448 122.5 90.0021 122.5 89.9595 122.5C89.9168 122.5 89.8742 122.5 89.8316 122.5C89.789 122.5 89.7464 122.5 89.7039 122.5C89.6613 122.5 89.6188 122.5 89.5763 122.5C89.5338 122.5 89.4913 122.5 89.4488 122.5C89.4064 122.5 89.364 122.5 89.3215 122.5C89.2791 122.5 89.2367 122.5 89.1944 122.5C89.152 122.5 89.1097 122.5 89.0674 122.5C89.0251 122.5 88.9828 122.5 88.9405 122.5C88.8983 122.5 88.856 122.5 88.8138 122.5C88.7716 122.5 88.7294 122.5 88.6873 122.5C88.6451 122.5 88.603 122.5 88.5609 122.5C88.5188 122.5 88.4767 122.5 88.4346 122.5C88.3926 122.5 88.3506 122.5 88.3086 122.5C88.2666 122.5 88.2246 122.5 88.1827 122.5C88.1407 122.5 88.0988 122.5 88.0569 122.5C88.015 122.5 87.9732 122.5 87.9314 122.5C87.8895 122.5 87.8477 122.5 87.806 122.5C87.7642 122.5 87.7224 122.5 87.6807 122.5C87.639 122.5 87.5973 122.5 87.5557 122.5C87.514 122.5 87.4724 122.5 87.4308 122.5C87.3892 122.5 87.3476 122.5 87.3061 122.5C87.2645 122.5 87.223 122.5 87.1816 122.5C87.1401 122.5 87.0986 122.5 87.0572 122.5C87.0158 122.5 86.9744 122.5 86.9331 122.5C86.8917 122.5 86.8504 122.5 86.8091 122.5C86.7678 122.5 86.7265 122.5 86.6853 122.5C86.6441 122.5 86.6029 122.5 86.5617 122.5C86.5206 122.5 86.4794 122.5 86.4383 122.5C86.3972 122.5 86.3562 122.5 86.3151 122.5C86.2741 122.5 86.2331 122.5 86.1921 122.5C86.1512 122.5 86.1102 122.5 86.0693 122.5C86.0284 122.5 85.9875 122.5 85.9467 122.5C85.9059 122.5 85.8651 122.5 85.8243 122.5C85.7835 122.5 85.7428 122.5 85.7021 122.5C85.6614 122.5 85.6207 122.5 85.5801 122.5C85.5395 122.5 85.4989 122.5 85.4583 122.5C85.4178 122.5 85.3772 122.5 85.3368 122.5C85.2963 122.5 85.2558 122.5 85.2154 122.5C85.175 122.5 85.1346 122.5 85.0943 122.5C85.0539 122.5 85.0136 122.5 84.9733 122.5C84.9331 122.5 84.8928 122.5 84.8526 122.5C84.8124 122.5 84.7723 122.5 84.7321 122.5C84.692 122.5 84.6519 122.5 84.6119 122.5C84.5718 122.5 84.5318 122.5 84.4919 122.5C84.4519 122.5 84.4119 122.5 84.372 122.5C84.3321 122.5 84.2923 122.5 84.2525 122.5C84.2126 122.5 84.1729 122.5 84.1331 122.5C84.0934 122.5 84.0537 122.5 84.014 122.5C83.9743 122.5 83.9347 122.5 83.8951 122.5C83.8556 122.5 83.816 122.5 83.7765 122.5C83.737 122.5 83.6975 122.5 83.6581 122.5C83.6187 122.5 83.5793 122.5 83.5399 122.5C83.5006 122.5 83.4613 122.5 83.422 122.5C83.3828 122.5 83.3436 122.5 83.3044 122.5C83.2652 122.5 83.2261 122.5 83.187 122.5C83.1479 122.5 83.1088 122.5 83.0698 122.5C83.0308 122.5 82.9918 122.5 82.9529 122.5C82.914 122.5 82.8751 122.5 82.8362 122.5C82.7974 122.5 82.7586 122.5 82.7198 122.5C82.6811 122.5 82.6424 122.5 82.6037 122.5C82.565 122.5 82.5264 122.5 82.4878 122.5C82.4492 122.5 82.4107 122.5 82.3722 122.5C82.3337 122.5 82.2952 122.5 82.2568 122.5C82.2184 122.5 82.1801 122.5 82.1418 122.5C82.1034 122.5 82.0652 122.5 82.0269 122.5C81.9887 122.5 81.9505 122.5 81.9124 122.5C81.8743 122.5 81.8362 122.5 81.7981 122.5C81.7601 122.5 81.7221 122.5 81.6841 122.5C81.6462 122.5 81.6083 122.5 81.5704 122.5C81.5325 122.5 81.4947 122.5 81.457 122.5C81.4192 122.5 81.3815 122.5 81.3438 122.5C81.3061 122.5 81.2685 122.5 81.2309 122.5C81.1934 122.5 81.1558 122.5 81.1183 122.5C81.0809 122.5 81.0434 122.5 81.006 122.5C80.9687 122.5 80.9313 122.5 80.894 122.5C80.8568 122.5 80.8195 122.5 80.7823 122.5C80.7451 122.5 80.708 122.5 80.6709 122.5C80.6338 122.5 80.5968 122.5 80.5598 122.5C80.5228 122.5 80.4858 122.5 80.4489 122.5C80.412 122.5 80.3752 122.5 80.3384 122.5C80.3016 122.5 80.2649 122.5 80.2282 122.5C80.1915 122.5 80.1548 122.5 80.1183 122.5C80.0817 122.5 80.0451 122.5 80.0086 122.5C79.9722 122.5 79.9357 122.5 79.8993 122.5C79.8629 122.5 79.8266 122.5 79.7903 122.5C79.7541 122.5 79.7178 122.5 79.6816 122.5C79.6455 122.5 79.6094 122.5 79.5733 122.5C79.5372 122.5 79.5012 122.5 79.4652 122.5C79.4293 122.5 79.3933 122.5 79.3575 122.5C79.3216 122.5 79.2858 122.5 79.2501 122.5C79.2143 122.5 79.1786 122.5 79.143 122.5C79.1073 122.5 79.0718 122.5 79.0362 122.5C79.0007 122.5 78.9652 122.5 78.9298 122.5C78.8944 122.5 78.859 122.5 78.8237 122.5C78.7884 122.5 78.7531 122.5 78.7179 122.5C78.6827 122.5 78.6475 122.5 78.6124 122.5C78.5774 122.5 78.5423 122.5 78.5073 122.5C78.4724 122.5 78.4374 122.5 78.4026 122.5C78.3677 122.5 78.3329 122.5 78.2981 122.5C78.2634 122.5 78.2287 122.5 78.194 122.5C78.1594 122.5 78.1248 122.5 78.0903 122.5C78.0558 122.5 78.0213 122.5 77.9869 122.5C77.9525 122.5 77.9181 122.5 77.8839 122.5C77.8496 122.5 77.8153 122.5 77.7811 122.5C77.747 122.5 77.7129 122.5 77.6788 122.5C77.6447 122.5 77.6107 122.5 77.5768 122.5C77.5429 122.5 77.509 122.5 77.4752 122.5C77.4413 122.5 77.4076 122.5 77.3739 122.5C77.3402 122.5 77.3065 122.5 77.2729 122.5C77.2394 122.5 77.2058 122.5 77.1724 122.5C77.1389 122.5 77.1055 122.5 77.0722 122.5C77.0389 122.5 77.0056 122.5 76.9724 122.5C76.9391 122.5 76.906 122.5 76.8729 122.5C76.8398 122.5 76.8068 122.5 76.7738 122.5C76.7408 122.5 76.7079 122.5 76.6751 122.5C76.6423 122.5 76.6095 122.5 76.5768 122.5C76.544 122.5 76.5114 122.5 76.4788 122.5C76.4462 122.5 76.4137 122.5 76.3812 122.5C76.3487 122.5 76.3163 122.5 76.284 122.5C76.2517 122.5 76.2194 122.5 76.1872 122.5C76.155 122.5 76.1228 122.5 76.0907 122.5C76.0587 122.5 76.0266 122.5 75.9947 122.5C75.9627 122.5 75.9308 122.5 75.899 122.5C75.8672 122.5 75.8354 122.5 75.8038 122.5C75.7721 122.5 75.7404 122.5 75.7089 122.5C75.6773 122.5 75.6458 122.5 75.6144 122.5C75.583 122.5 75.5516 122.5 75.5203 122.5C75.489 122.5 75.4578 122.5 75.4266 122.5C75.3955 122.5 75.3644 122.5 75.3333 122.5C75.3023 122.5 75.2714 122.5 75.2405 122.5C75.2096 122.5 75.1787 122.5 75.148 122.5C75.1172 122.5 75.0865 122.5 75.0559 122.5C75.0253 122.5 74.9948 122.5 74.9643 122.5C74.9338 122.5 74.9034 122.5 74.873 122.5C74.8427 122.5 74.8124 122.5 74.7822 122.5C74.752 122.5 74.7219 122.5 74.6918 122.5C74.6617 122.5 74.6317 122.5 74.6018 122.5C74.5719 122.5 74.542 122.5 74.5122 122.5C74.4824 122.5 74.4527 122.5 74.4231 122.5C74.3934 122.5 74.3638 122.5 74.3343 122.5C74.3048 122.5 74.2754 122.5 74.246 122.5C74.2167 122.5 74.1874 122.5 74.1582 122.5C74.1289 122.5 74.0998 122.5 74.0707 122.5C74.0416 122.5 74.0126 122.5 73.9837 122.5C73.9548 122.5 73.9259 122.5 73.8971 122.5C73.8684 122.5 73.8396 122.5 73.811 122.5C73.7824 122.5 73.7538 122.5 73.7253 122.5C73.6968 122.5 73.6684 122.5 73.64 122.5C73.6117 122.5 73.5834 122.5 73.5552 122.5C73.527 122.5 73.4989 122.5 73.4709 122.5C73.4428 122.5 73.4148 122.5 73.3869 122.5C73.359 122.5 73.3312 122.5 73.3035 122.5C73.2757 122.5 73.248 122.5 73.2204 122.5C73.1928 122.5 73.1653 122.5 73.1379 122.5C73.1104 122.5 73.0831 122.5 73.0558 122.5C73.0285 122.5 73.0013 122.5 72.9741 122.5C72.947 122.5 72.9199 122.5 72.8929 122.5C72.8659 122.5 72.839 122.5 72.8122 122.5C72.7853 122.5 72.7586 122.5 72.7319 122.5C72.7052 122.5 72.6786 122.5 72.6521 122.5C72.6256 122.5 72.5991 122.5 72.5728 122.5C72.5464 122.5 72.5201 122.5 72.4939 122.5C72.4677 122.5 72.4416 122.5 72.4155 122.5C72.3895 122.5 72.3635 122.5 72.3376 122.5C72.3117 122.5 72.2859 122.5 72.2601 122.5C72.2344 122.5 72.2088 122.5 72.1832 122.5C72.1576 122.5 72.1321 122.5 72.1067 122.5C72.0813 122.5 72.0559 122.5 72.0307 122.5C72.0054 122.5 71.9803 122.5 71.9552 122.5C71.9301 122.5 71.9051 122.5 71.8801 122.5C71.8552 122.5 71.8304 122.5 71.8056 122.5C71.7808 122.5 71.7561 122.5 71.7315 122.5C71.7069 122.5 71.6824 122.5 71.658 122.5C71.6335 122.5 71.6092 122.5 71.5849 122.5C71.5606 122.5 71.5365 122.5 71.5123 122.5C71.4882 122.5 71.4642 122.5 71.4403 122.5C71.4163 122.5 71.3925 122.5 71.3687 122.5C71.3449 122.5 71.3212 122.5 71.2976 122.5C71.274 122.5 71.2505 122.5 71.2271 122.5C71.2036 122.5 71.1803 122.5 71.157 122.5C71.1338 122.5 71.1106 122.5 71.0875 122.5C71.0644 122.5 71.0414 122.5 71.0184 122.5C70.9955 122.5 70.9727 122.5 70.9499 122.5C70.9272 122.5 70.9045 122.5 70.8819 122.5C70.8593 122.5 70.8368 122.5 70.8144 122.5C70.792 122.5 70.7697 122.5 70.7475 122.5C70.7252 122.5 70.7031 122.5 70.681 122.5C70.659 122.5 70.637 122.5 70.6151 122.5C70.5932 122.5 70.5714 122.5 70.5497 122.5C70.528 122.5 70.5064 122.5 70.4848 122.5C70.4633 122.5 70.4419 122.5 70.4205 122.5C70.3991 122.5 70.3779 122.5 70.3567 122.5C70.3355 122.5 70.3144 122.5 70.2934 122.5C70.2724 122.5 70.2515 122.5 70.2307 122.5C70.2099 122.5 70.1891 122.5 70.1685 122.5C70.1479 122.5 70.1273 122.5 70.1068 122.5C70.0864 122.5 70.066 122.5 70.0457 122.5C70.0255 122.5 70.0053 122.5 69.9852 122.5C69.9651 122.5 69.9451 122.5 69.9251 122.5C69.9052 122.5 69.8854 122.5 69.8657 122.5C69.8459 122.5 69.8263 122.5 69.8067 122.5C69.7872 122.5 69.7677 122.5 69.7484 122.5C69.729 122.5 69.7097 122.5 69.6906 122.5C69.6714 122.5 69.6523 122.5 69.6333 122.5C69.6143 122.5 69.5954 122.5 69.5766 122.5C69.5578 122.5 69.5391 122.5 69.5205 122.5C69.5018 122.5 69.4833 122.5 69.4649 122.5C69.4464 122.5 69.4281 122.5 69.4099 122.5C69.3916 122.5 69.3735 122.5 69.3554 122.5C69.3374 122.5 69.3194 122.5 69.3016 122.5C69.2837 122.5 69.2659 122.5 69.2482 122.5C69.2306 122.5 69.213 122.5 69.1955 122.5C69.178 122.5 69.1607 122.5 69.1434 122.5C69.1261 122.5 69.1089 122.5 69.0918 122.5C69.0747 122.5 69.0577 122.5 69.0408 122.5C69.0239 122.5 69.0071 122.5 68.9904 122.5C68.9737 122.5 68.9571 122.5 68.9405 122.5C68.924 122.5 68.9076 122.5 68.8913 122.5C68.875 122.5 68.8588 122.5 68.8426 122.5C68.8265 122.5 68.8105 122.5 68.7946 122.5C68.7786 122.5 68.7628 122.5 68.7471 122.5C68.7314 122.5 68.7157 122.5 68.7002 122.5C68.6847 122.5 68.6693 122.5 68.6539 122.5C68.6386 122.5 68.6234 122.5 68.6082 122.5C68.5931 122.5 68.5781 122.5 68.5632 122.5C68.5482 122.5 68.5334 122.5 68.5187 122.5C68.5039 122.5 68.4893 122.5 68.4748 122.5C68.4603 122.5 68.4458 122.5 68.4315 122.5C68.4172 122.5 68.403 122.5 68.3889 122.5C68.3747 122.5 68.3607 122.5 68.3468 122.5C68.3329 122.5 68.3191 122.5 68.3054 122.5C68.2916 122.5 68.278 122.5 68.2645 122.5C68.251 122.5 68.2376 122.5 68.2243 122.5C68.211 122.5 68.1978 122.5 68.1847 122.5C68.1716 122.5 68.1587 122.5 68.1458 122.5C68.1329 122.5 68.1201 122.5 68.1074 122.5C68.0947 122.5 68.0822 122.5 68.0697 122.5C68.0572 122.5 68.0449 122.5 68.0326 122.5C68.0203 122.5 68.0082 122.5 67.9961 122.5C67.9841 122.5 67.9722 122.5 67.9603 122.5C67.9485 122.5 67.9367 122.5 67.9251 122.5C67.9135 122.5 67.902 122.5 67.8905 122.5C67.8791 122.5 67.8678 122.5 67.8566 122.5C67.8454 122.5 67.8343 122.5 67.8233 122.5C67.8123 122.5 67.8015 122.5 67.7907 122.5C67.7799 122.5 67.7692 122.5 67.7587 122.5C67.7481 122.5 67.7377 122.5 67.7273 122.5C67.717 122.5 67.7068 122.5 67.6966 122.5C67.6865 122.5 67.6765 122.5 67.6666 122.5C67.6567 122.5 67.6469 122.5 67.6372 122.5C67.6275 122.5 67.6179 122.5 67.6084 122.5C67.5989 122.5 67.5896 122.5 67.5803 122.5C67.5711 122.5 67.5619 122.5 67.5529 122.5C67.5439 122.5 67.5349 122.5 67.5261 122.5C67.5173 122.5 67.5086 122.5 67.5 122.5V123.5ZM121.608 123.488C122.3 123.334 123.311 123.298 124.12 123.636C124.515 123.801 124.851 124.05 125.092 124.412C125.332 124.773 125.5 125.28 125.5 126H126.5C126.5 125.12 126.293 124.411 125.924 123.857C125.555 123.304 125.048 122.94 124.505 122.714C123.439 122.268 122.2 122.332 121.392 122.512L121.608 123.488ZM125.5 126V155H126.5V126H125.5Z" fill="#38DBFF"/>
</svg>
