<svg xmlns="http://www.w3.org/2000/svg" width="48" height="48" viewBox="0 0 48 48" fill="none"><g clip-path="url(#clip0_2258_728)"><path d="M14.535 18.0703V29.8828C14.535 31.7034 18.7725 33.1791 24 33.1791C29.2275 33.1791 33.465 31.7034 33.465 29.8828V18.0703" stroke="white" stroke-width="2" stroke-miterlimit="10" stroke-linecap="round" stroke-linejoin="round"></path><path d="M14.535 25.9453C14.535 27.7659 18.7725 29.2416 24 29.2416C29.2275 29.2416 33.465 27.7659 33.465 25.9453" stroke="white" stroke-width="2" stroke-miterlimit="10" stroke-linecap="round" stroke-linejoin="round"></path><path d="M14.535 22.0078C14.535 23.8284 18.7725 25.3041 24 25.3041C29.2275 25.3041 33.465 23.8284 33.465 22.0078" stroke="white" stroke-width="2" stroke-miterlimit="10" stroke-linecap="round" stroke-linejoin="round"></path><path d="M24 21.3659C29.2272 21.3659 33.4646 19.8902 33.4646 18.0699C33.4646 16.2496 29.2272 14.7739 24 14.7739C18.7729 14.7739 14.5354 16.2496 14.5354 18.0699C14.5354 19.8902 18.7729 21.3659 24 21.3659Z" stroke="white" stroke-width="2" stroke-miterlimit="10" stroke-linecap="round" stroke-linejoin="round"></path><path d="M15.5813 11.2332C11.4516 13.966 8.72815 18.6535 8.72815 23.9766C8.72815 32.4113 15.5653 39.2485 24 39.2485C25.051 39.2485 26.0766 39.1425 27.0675 38.94" stroke="white" stroke-width="2" stroke-miterlimit="10" stroke-linecap="round" stroke-linejoin="round"></path><path d="M18.4988 9.72565C20.206 9.06659 22.0603 8.70471 24 8.70471C32.4347 8.70471 39.2719 15.5419 39.2719 23.9766C39.2719 30.2025 35.5463 35.5585 30.2025 37.936" stroke="white" stroke-width="2" stroke-miterlimit="10" stroke-linecap="round" stroke-linejoin="round"></path><path d="M24 42.5859V39.2484" stroke="white" stroke-width="2" stroke-miterlimit="10" stroke-linecap="round" stroke-linejoin="round"></path><path d="M24 8.70469V5.41406" stroke="white" stroke-width="2" stroke-miterlimit="10" stroke-linecap="round" stroke-linejoin="round"></path><path d="M8.72812 23.9766H5.39062" stroke="white" stroke-width="2" stroke-miterlimit="10" stroke-linecap="round" stroke-linejoin="round"></path><path d="M42.6094 23.9766H39.2719" stroke="white" stroke-width="2" stroke-miterlimit="10" stroke-linecap="round" stroke-linejoin="round"></path><path d="M24 5.41406C25.2944 5.41406 26.3438 4.36473 26.3438 3.07031C26.3438 1.7759 25.2944 0.726562 24 0.726562C22.7056 0.726562 21.6562 1.7759 21.6562 3.07031C21.6562 4.36473 22.7056 5.41406 24 5.41406Z" stroke="white" stroke-width="2" stroke-miterlimit="10" stroke-linecap="round" stroke-linejoin="round"></path><path d="M24 47.2734C25.2944 47.2734 26.3438 46.2241 26.3438 44.9297C26.3438 43.6353 25.2944 42.5859 24 42.5859C22.7056 42.5859 21.6562 43.6353 21.6562 44.9297C21.6562 46.2241 22.7056 47.2734 24 47.2734Z" stroke="white" stroke-width="2" stroke-miterlimit="10" stroke-linecap="round" stroke-linejoin="round"></path><path d="M3.04688 26.3203C4.34129 26.3203 5.39062 25.271 5.39062 23.9766C5.39062 22.6821 4.34129 21.6328 3.04688 21.6328C1.75246 21.6328 0.703125 22.6821 0.703125 23.9766C0.703125 25.271 1.75246 26.3203 3.04688 26.3203Z" stroke="white" stroke-width="2" stroke-miterlimit="10" stroke-linecap="round" stroke-linejoin="round"></path><path d="M44.9531 26.3203C46.2475 26.3203 47.2969 25.271 47.2969 23.9766C47.2969 22.6821 46.2475 21.6328 44.9531 21.6328C43.6587 21.6328 42.6094 22.6821 42.6094 23.9766C42.6094 25.271 43.6587 26.3203 44.9531 26.3203Z" stroke="white" stroke-width="2" stroke-miterlimit="10" stroke-linecap="round" stroke-linejoin="round"></path><path d="M13.2009 13.1775L10.4231 10.3997" stroke="white" stroke-width="2" stroke-miterlimit="10" stroke-linecap="round" stroke-linejoin="round"></path><path d="M37.5769 37.5534L34.7991 34.7756" stroke="white" stroke-width="2" stroke-miterlimit="10" stroke-linecap="round" stroke-linejoin="round"></path><path d="M13.2009 34.7756L10.4231 37.5534" stroke="white" stroke-width="2" stroke-miterlimit="10" stroke-linecap="round" stroke-linejoin="round"></path><path d="M37.5769 10.3997L34.7991 13.1775" stroke="white" stroke-width="2" stroke-miterlimit="10" stroke-linecap="round" stroke-linejoin="round"></path><path d="M8.10309 11.361C9.91527 11.361 11.3843 9.8919 11.3843 8.07971C11.3843 6.26753 9.91527 4.79846 8.10309 4.79846C6.2909 4.79846 4.82184 6.26753 4.82184 8.07971C4.82184 9.8919 6.2909 11.361 8.10309 11.361Z" stroke="white" stroke-width="2" stroke-miterlimit="10" stroke-linecap="round" stroke-linejoin="round"></path><path d="M39.8969 43.1547C41.7091 43.1547 43.1782 41.6856 43.1782 39.8734C43.1782 38.0612 41.7091 36.5922 39.8969 36.5922C38.0847 36.5922 36.6157 38.0612 36.6157 39.8734C36.6157 41.6856 38.0847 43.1547 39.8969 43.1547Z" stroke="white" stroke-width="2" stroke-miterlimit="10" stroke-linecap="round" stroke-linejoin="round"></path><path d="M39.8969 11.361C41.7091 11.361 43.1782 9.8919 43.1782 8.07971C43.1782 6.26753 41.7091 4.79846 39.8969 4.79846C38.0847 4.79846 36.6157 6.26753 36.6157 8.07971C36.6157 9.8919 38.0847 11.361 39.8969 11.361Z" stroke="white" stroke-width="2" stroke-miterlimit="10" stroke-linecap="round" stroke-linejoin="round"></path><path d="M8.10309 43.1547C9.91527 43.1547 11.3843 41.6856 11.3843 39.8734C11.3843 38.0612 9.91527 36.5922 8.10309 36.5922C6.2909 36.5922 4.82184 38.0612 4.82184 39.8734C4.82184 41.6856 6.2909 43.1547 8.10309 43.1547Z" stroke="white" stroke-width="2" stroke-miterlimit="10" stroke-linecap="round" stroke-linejoin="round"></path></g><defs><clipPath id="clip0_2258_728"><rect width="48" height="48" fill="white"></rect></clipPath></defs></svg>