<svg xmlns="http://www.w3.org/2000/svg" width="44" height="44" viewBox="0 0 44 44" fill="none"><mask id="mask0_2011_209" style="mask-type:luminance" maskUnits="userSpaceOnUse" x="0" y="0" width="44" height="44"><path d="M0 3.8147e-06H44V44H0V3.8147e-06Z" fill="white"></path></mask><g mask="url(#mask0_2011_209)"><path d="M1.28906 38.7578V20.7109C1.28906 12.8797 7.63752 6.53125 15.4687 6.53125C23.3 6.53125 29.6484 12.8797 29.6484 20.7109V27.1562C29.6484 32.8517 25.0314 37.4688 19.3359 37.4688C13.6405 37.4688 9.02344 32.8517 9.02344 27.1562V22C9.02344 17.7284 12.4862 14.2656 16.7578 14.2656C21.0294 14.2656 24.4922 17.7284 24.4922 22V25.8672C24.4922 28.003 22.7608 29.7344 20.625 29.7344C18.4892 29.7344 16.7578 28.003 16.7578 25.8672C16.7578 23.7314 18.4892 22 20.625 22H42.1524" stroke="#292929" stroke-width="2" stroke-miterlimit="10"></path><path d="M37.0391 16.8438L42.1523 22L37.0391 27.1562" stroke="#292929" stroke-width="2" stroke-miterlimit="10"></path></g></svg>