<svg xmlns="http://www.w3.org/2000/svg" width="44" height="44" viewBox="0 0 44 44" fill="none"><g clip-path="url(#clip0_2011_198)"><path d="M40.6421 38.1651C41.3586 37.3816 41.8001 36.3425 41.8001 35.2003C41.8001 33.0243 40.211 31.2175 38.1335 30.8662V24.9337C38.1335 24.7386 38.0565 24.5524 37.9186 24.4153L34.966 21.4626C35.0996 21.2091 35.241 20.9595 35.3584 20.6999C35.4884 20.4142 35.4207 20.0769 35.1912 19.8628L33.8252 18.5823C33.9756 18.1276 34.0995 17.6642 34.1961 17.1948L36.0302 16.7666C36.336 16.6953 36.5626 16.4371 36.5934 16.1249C36.6418 15.63 36.6668 15.1398 36.6668 14.6672C36.6668 14.1942 36.6418 13.7044 36.5927 13.2091C36.5619 12.8969 36.3352 12.6387 36.0295 12.5675L34.1954 12.1392C34.0988 11.6698 33.9749 11.2072 33.8245 10.7517L35.1905 9.47127C35.4193 9.25714 35.487 8.91984 35.3577 8.6341C34.9588 7.75326 34.4676 6.90392 33.8961 6.11151C33.7128 5.85621 33.3901 5.74557 33.0872 5.83795L31.3098 6.37827C30.9893 6.01877 30.6484 5.67646 30.2875 5.35599L30.8289 3.57854C30.9198 3.27847 30.8103 2.95299 30.5553 2.76966C29.7633 2.1989 28.9139 1.70691 28.032 1.30802C27.7459 1.18055 27.4093 1.24572 27.1945 1.47524L25.914 2.84235C25.46 2.69196 24.9959 2.56735 24.5265 2.47031L24.0983 0.636288C24.027 0.330497 23.7692 0.10384 23.4566 0.073046C22.4665 -0.0243487 21.5302 -0.0243487 20.5401 0.073046C20.2279 0.10384 19.9697 0.330497 19.8985 0.636288L19.4702 2.47031C19.0008 2.56735 18.5382 2.69124 18.0827 2.84127L16.8026 1.47524C16.5874 1.24644 16.2526 1.18127 15.9651 1.30802C15.0842 1.70691 14.2349 2.19818 13.4425 2.76966C13.1872 2.95299 13.078 3.27776 13.1689 3.57854L13.7093 5.35599C13.3494 5.67718 13.0067 6.01806 12.687 6.37756L10.9124 5.83723C10.6138 5.74557 10.2868 5.85621 10.1035 6.11044C9.53311 6.90249 9.04112 7.75182 8.64188 8.6341C8.51226 8.91984 8.57957 9.25714 8.80909 9.47127L10.1762 10.7517C10.0258 11.2058 9.9012 11.6698 9.80417 12.1392L7.97014 12.5675C7.66435 12.6387 7.43805 12.8969 7.40726 13.2091C7.35856 13.7044 7.33385 14.1942 7.33385 14.6672C7.33385 15.1398 7.35856 15.63 7.40797 16.1249C7.43877 16.4371 7.66507 16.6953 7.97086 16.7666L9.80524 17.1948C9.90192 17.6642 10.0258 18.1269 10.1762 18.5823L8.80981 19.8628C8.581 20.0769 8.51369 20.4142 8.64259 20.6999C8.76004 20.9595 8.90148 21.2098 9.03504 21.4626L6.08276 24.4153C5.94419 24.5524 5.8672 24.7386 5.8672 24.9337V30.8662C3.78969 31.2175 2.20058 33.0243 2.20058 35.2003C2.20058 36.3425 2.64208 37.3816 3.35858 38.1651C1.48337 38.3255 0.000610352 39.886 0.000610352 41.8031V43.2668C0.000610352 43.6722 0.328243 44.0002 0.733935 44.0002H12.4671C12.8725 44.0002 13.2004 43.6722 13.2004 43.2668V41.8031C13.2004 39.8867 11.7177 38.3262 9.84248 38.1651C10.559 37.3816 11.0005 36.3425 11.0005 35.2003C11.0005 33.0243 9.41137 31.2175 7.33385 30.8662V25.237L9.80667 22.7646C9.90765 22.916 9.99716 23.0754 10.1035 23.2229C10.2868 23.4771 10.6095 23.5878 10.9124 23.4961L12.6898 22.9558C13.0103 23.3153 13.3516 23.6576 13.7121 23.9781L13.1711 25.7555C13.0801 26.0556 13.1893 26.3811 13.4446 26.5644C14.2367 27.1351 15.0857 27.6271 15.968 28.026C16.2555 28.1542 16.5906 28.089 16.8055 27.8588L18.0859 26.4921C18.5396 26.6421 19.004 26.767 19.4731 26.8637L19.9013 28.6978C19.9726 29.0035 20.2308 29.2302 20.543 29.261C20.7886 29.285 21.0257 29.285 21.2677 29.2975V30.8676C19.1902 31.2182 17.6011 33.025 17.6011 35.2017C17.6011 36.3439 18.0426 37.3831 18.7591 38.1665C16.8832 38.3255 15.4004 39.886 15.4004 41.8031V43.2668C15.4004 43.6722 15.7281 44.0002 16.1337 44.0002H27.8669C28.2723 44.0002 28.6003 43.6722 28.6003 43.2668V41.8031C28.6003 39.8867 27.1175 38.3262 25.2423 38.1651C25.9588 37.3816 26.4003 36.3425 26.4003 35.2003C26.4003 33.0243 24.8112 31.2175 22.7337 30.8662V29.2961C22.9757 29.2836 23.2124 29.2836 23.458 29.2596C23.7706 29.2288 24.0288 29.0021 24.0997 28.6963L24.5279 26.8623C24.9974 26.7653 25.46 26.6414 25.9155 26.491L27.1959 27.8574C27.4107 28.0869 27.7473 28.1521 28.0334 28.0246C28.9139 27.6257 29.7633 27.1344 30.556 26.563C30.811 26.3796 30.9205 26.0548 30.8296 25.7541L30.2889 23.9766C30.6484 23.6561 30.9907 23.3153 31.3112 22.9543L33.089 23.4954C33.388 23.5863 33.7145 23.4764 33.8979 23.2222C34.0039 23.0739 34.0941 22.9146 34.1947 22.7628L36.6668 25.237V30.8662C34.5893 31.2168 33.0002 33.0236 33.0002 35.2003C33.0002 36.3425 33.4417 37.3816 34.1582 38.1651C32.283 38.3255 30.8002 39.886 30.8002 41.8031V43.2668C30.8002 43.6722 31.1279 44.0002 31.5336 44.0002H43.2667C43.6721 44.0002 44.0001 43.6722 44.0001 43.2668V41.8031C44.0001 39.886 42.5173 38.3255 40.6421 38.1651ZM11.7338 41.8031V42.5335H1.46726V41.8031C1.46726 40.5885 2.45553 39.6002 3.6701 39.6002H9.53096C10.7452 39.6002 11.7338 40.5885 11.7338 41.8031ZM9.53382 35.2003C9.53382 36.8177 8.21828 38.1336 6.60053 38.1336C4.98277 38.1336 3.66723 36.8177 3.66723 35.2003C3.66723 33.5825 4.98277 32.267 6.60053 32.267C8.21828 32.267 9.53382 33.5825 9.53382 35.2003ZM27.1336 41.8031V42.5335H16.8671V41.8031C16.8671 40.5885 17.8553 39.6002 19.0699 39.6002H24.9308C26.145 39.6002 27.1336 40.5885 27.1336 41.8031ZM24.9336 35.2003C24.9336 36.8177 23.6181 38.1336 22.0003 38.1336C20.3826 38.1336 19.067 36.8177 19.067 35.2003C19.067 33.5825 20.3826 32.267 22.0003 32.267C23.6181 32.267 24.9336 33.5825 24.9336 35.2003ZM33.0031 21.9378L31.279 21.4129C30.9943 21.3248 30.6871 21.4204 30.4994 21.6481C30.0454 22.2013 29.5352 22.7116 28.9823 23.1656C28.7535 23.3539 28.6611 23.6619 28.7467 23.9451L29.2713 25.6692C28.8291 25.9618 28.37 26.2278 27.8999 26.4641L26.6592 25.1389C26.4565 24.9219 26.1421 24.8485 25.8664 24.9534C25.2004 25.2034 24.5068 25.3888 23.805 25.5049C23.5125 25.5525 23.2768 25.7723 23.2095 26.0613L22.7945 27.8413C22.2564 27.8742 21.7457 27.8742 21.2076 27.8413L20.7926 26.0613C20.7249 25.7723 20.4904 25.5532 20.1971 25.5049C19.4946 25.3888 18.8014 25.2034 18.1364 24.9534C17.8578 24.8464 17.5445 24.9212 17.3429 25.1382L16.1015 26.4634C15.6307 26.2278 15.1716 25.961 14.7301 25.6692L15.255 23.9451C15.341 23.6612 15.2479 23.3532 15.0198 23.1656C14.4669 22.7116 13.9563 22.2013 13.5027 21.6481C13.314 21.4197 13.0067 21.3255 12.7231 21.4129L10.999 21.9371C10.7065 21.4948 10.4401 21.0358 10.2041 20.566L11.529 19.325C11.7456 19.1226 11.8187 18.8104 11.7148 18.5325C11.4645 17.8665 11.279 17.173 11.163 16.4711C11.1154 16.1782 10.8956 15.943 10.6066 15.8757L8.82664 15.4603C8.80909 15.1914 8.8005 14.9268 8.8005 14.6672C8.8005 14.4076 8.80909 14.1426 8.82521 13.8737L10.6052 13.4584C10.8941 13.391 11.1133 13.1565 11.1616 12.8629C11.2776 12.1604 11.4631 11.4675 11.713 10.8026C11.8179 10.5243 11.7445 10.2114 11.5283 10.0091L10.2034 8.76731C10.4387 8.2968 10.7054 7.83776 10.9976 7.39626L12.7213 7.92119C13.0053 8.00784 13.3132 7.91403 13.5009 7.68522C13.9535 7.13416 14.4637 6.62391 15.0184 6.16845C15.2472 5.9801 15.3395 5.67216 15.2536 5.38893L14.7294 3.66483C15.1716 3.37229 15.6307 3.10624 16.1008 2.86992L17.3415 4.19513C17.5431 4.4114 17.8571 4.48409 18.1343 4.38061C18.7999 4.13068 19.4939 3.9452 20.1957 3.82918C20.4882 3.78156 20.7235 3.56171 20.7911 3.27275L21.2061 1.49279C21.7443 1.45985 22.2546 1.45985 22.7931 1.49279L23.2081 3.27275C23.2754 3.56171 23.5103 3.78084 23.8036 3.82918C24.5061 3.9452 25.199 4.13068 25.8643 4.38061C26.1421 4.48624 26.4551 4.41284 26.6577 4.19585L27.8992 2.87063C28.37 3.10624 28.8291 3.373 29.2706 3.66483L28.7453 5.38893C28.6597 5.67288 28.7528 5.98082 28.9809 6.16845C29.5337 6.62248 30.044 7.13272 30.498 7.68594C30.6864 7.91474 30.9943 8.00856 31.2775 7.92119L33.0016 7.39698C33.2942 7.83919 33.5602 8.29824 33.7965 8.76802L32.4713 10.0091C32.2551 10.2114 32.1817 10.5236 32.2859 10.8019C32.5358 11.4675 32.7216 12.1614 32.8373 12.8629C32.8849 13.1558 33.1051 13.391 33.3941 13.4584L35.1737 13.8737C35.1912 14.1426 35.2002 14.4076 35.2002 14.6672C35.2002 14.9268 35.1912 15.1914 35.1751 15.4603L33.3955 15.8757C33.1065 15.943 32.887 16.1775 32.8387 16.4711C32.7231 17.173 32.5372 17.8658 32.2873 18.5325C32.1831 18.8104 32.2565 19.1226 32.4728 19.325L33.798 20.566C33.562 21.0376 33.2949 21.4959 33.0031 21.9378ZM37.4001 32.267C39.0179 32.267 40.3334 33.5825 40.3334 35.2003C40.3334 36.8177 39.0179 38.1336 37.4001 38.1336C35.7824 38.1336 34.4668 36.8177 34.4668 35.2003C34.4668 33.5825 35.7824 32.267 37.4001 32.267ZM42.5334 42.5335H32.2669V41.8031C32.2669 40.5885 33.2551 39.6002 34.4697 39.6002H40.3306C41.5448 39.6002 42.5334 40.5885 42.5334 41.8031V42.5335Z" fill="#292929"></path><path d="M22.0004 5.13403C16.7439 5.13403 12.4672 9.41044 12.4672 14.6672C12.4672 19.9237 16.7439 24.2005 22.0004 24.2005C27.2568 24.2005 31.5336 19.9237 31.5336 14.6672C31.5336 9.41044 27.2568 5.13403 22.0004 5.13403ZM16.9029 20.912C17.087 19.0611 18.6417 17.6005 20.5337 17.6005H23.467C25.3591 17.6005 26.9134 19.0611 27.0975 20.912C25.7071 22.0495 23.9325 22.7338 22.0004 22.7338C20.0679 22.7338 18.2933 22.0495 16.9029 20.912ZM22.0004 16.1339C20.3826 16.1339 19.0671 14.818 19.0671 13.2006C19.0671 11.5828 20.3826 10.2673 22.0004 10.2673C23.6181 10.2673 24.9337 11.5828 24.9337 13.2006C24.9337 14.818 23.6181 16.1339 22.0004 16.1339ZM28.3332 19.648C27.8147 18.1033 26.5815 16.8826 25.0318 16.3824C25.8729 15.58 26.4003 14.4513 26.4003 13.2006C26.4003 10.774 24.427 8.80065 22.0004 8.80065C19.5737 8.80065 17.6004 10.774 17.6004 13.2006C17.6004 14.4513 18.1275 15.58 18.9693 16.3817C17.42 16.8815 16.1864 18.1026 15.6679 19.6473C14.5855 18.2744 13.9338 16.5467 13.9338 14.6672C13.9338 10.2193 17.5528 6.60068 22.0004 6.60068C26.4479 6.60068 30.0669 10.2193 30.0669 14.6672C30.0669 16.5467 29.4149 18.2744 28.3332 19.648Z" fill="#519FDF"></path><path d="M39.6002 13.9338H41.0668V15.4005H39.6002V13.9338Z" fill="#292929"></path><path d="M42.5334 13.9338H44.0001V15.4005H42.5334V13.9338Z" fill="#292929"></path><path d="M42.5334 16.8672H44.0001V18.3338H42.5334V16.8672Z" fill="#292929"></path><path d="M42.5334 11.0005H44.0001V12.4671H42.5334V11.0005Z" fill="#292929"></path><path d="M0.000610352 13.9338H1.46726V15.4005H0.000610352V13.9338Z" fill="#292929"></path><path d="M0.000610352 16.8672H1.46726V18.3338H0.000610352V16.8672Z" fill="#292929"></path><path d="M0.000610352 11.0005H1.46726V12.4671H0.000610352V11.0005Z" fill="#292929"></path><path d="M2.93396 13.9338H4.40061V15.4005H2.93396V13.9338Z" fill="#292929"></path></g><defs><clipPath id="clip0_2011_198"><rect width="44" height="44" fill="white"></rect></clipPath></defs></svg>