<svg xmlns="http://www.w3.org/2000/svg" width="48" height="48" viewBox="0 0 48 48" fill="none"><g clip-path="url(#clip0_2258_653)"><path d="M41.8507 4.875H36.2778L33.3515 7.80122V10.5469" stroke="white" stroke-width="2" stroke-miterlimit="10" stroke-linecap="round" stroke-linejoin="round"></path><mask id="mask0_2258_653" style="mask-type:luminance" maskUnits="userSpaceOnUse" x="0" y="0" width="48" height="48"><path d="M0 3.8147e-06H48V48H0V3.8147e-06Z" fill="white"></path></mask><g mask="url(#mask0_2258_653)"><path d="M30.539 10.6406V7.21875C30.539 6.84581 30.6873 6.48816 30.951 6.22444L34.701 2.47444C34.9647 2.21072 35.3224 2.0625 35.6953 2.0625H41.8507" stroke="white" stroke-width="2" stroke-miterlimit="10" stroke-linecap="round" stroke-linejoin="round"></path><path d="M41.82 43.125H36.2778L33.3515 40.1988V37.3293" stroke="white" stroke-width="2" stroke-miterlimit="10" stroke-linecap="round" stroke-linejoin="round"></path><path d="M30.539 37.2984V40.7811C30.539 41.1541 30.6873 41.5118 30.951 41.7755L34.701 45.5255C34.9647 45.7893 35.3224 45.9374 35.6953 45.9374H41.82" stroke="white" stroke-width="2" stroke-miterlimit="10" stroke-linecap="round" stroke-linejoin="round"></path><path d="M41.8507 14.7656H34.6439" stroke="white" stroke-width="2" stroke-miterlimit="10" stroke-linecap="round" stroke-linejoin="round"></path><path d="M34.601 11.9531H41.6484" stroke="white" stroke-width="2" stroke-miterlimit="10" stroke-linecap="round" stroke-linejoin="round"></path><path d="M41.82 36.0469H34.5936" stroke="white" stroke-width="2" stroke-miterlimit="10" stroke-linecap="round" stroke-linejoin="round"></path><path d="M34.6244 33.2344H41.6484" stroke="white" stroke-width="2" stroke-miterlimit="10" stroke-linecap="round" stroke-linejoin="round"></path><path d="M29.2245 33.3005L26.3089 29.4245" stroke="white" stroke-width="2" stroke-miterlimit="10" stroke-linecap="round" stroke-linejoin="round"></path><path d="M28.4574 27.6021L31.6262 31.8147" stroke="white" stroke-width="2" stroke-miterlimit="10" stroke-linecap="round" stroke-linejoin="round"></path><path d="M31.6261 16.2029L28.4574 20.4526" stroke="white" stroke-width="2" stroke-miterlimit="10" stroke-linecap="round" stroke-linejoin="round"></path><path d="M26.3075 18.6309L29.2245 14.7188" stroke="white" stroke-width="2" stroke-miterlimit="10" stroke-linecap="round" stroke-linejoin="round"></path><path d="M29.1797 13.3594C29.1797 11.8061 30.4389 10.5469 31.9922 10.5469C33.5454 10.5469 34.8047 11.8061 34.8047 13.3594C34.8047 14.9126 33.5454 16.1719 31.9922 16.1719C30.4389 16.1719 29.1797 14.9126 29.1797 13.3594Z" stroke="white" stroke-width="2" stroke-miterlimit="10" stroke-linecap="round" stroke-linejoin="round"></path><path d="M29.1797 34.6406C29.1797 33.0874 30.4389 31.8281 31.9922 31.8281C33.5454 31.8281 34.8047 33.0874 34.8047 34.6406C34.8047 36.1939 33.5454 37.4531 31.9922 37.4531C30.4389 37.4531 29.1797 36.1939 29.1797 34.6406Z" stroke="white" stroke-width="2" stroke-miterlimit="10" stroke-linecap="round" stroke-linejoin="round"></path><path d="M26.4964 7.68647L24.2005 13.6239C24.0687 13.9651 23.7503 14.1989 23.3852 14.2208C18.2757 14.5264 14.2266 18.7669 14.2266 23.9531C14.2266 29.1387 18.2748 33.3788 23.3833 33.6853C23.7493 33.7073 24.0683 33.9422 24.1995 34.2845L28.3945 45.2204C28.4519 45.3702 28.4712 45.5326 28.4476 45.6913C28.3128 46.5998 27.5296 47.2969 26.5838 47.2969H25.5703M22.2891 47.2969H21.3694C20.3286 47.2969 19.4849 46.4532 19.4849 45.4125V43.3828C19.4849 42.5709 18.9647 41.85 18.194 41.595C17.3363 41.3109 16.5057 40.9658 15.7077 40.5647C14.9812 40.1991 14.1028 40.3388 13.5281 40.9134L12.0919 42.3497C11.3559 43.0856 10.1624 43.0856 9.4265 42.3497L5.67275 38.5969C4.93784 37.8609 4.93784 36.6675 5.67275 35.9316L7.10994 34.4953C7.68462 33.9206 7.82441 33.0422 7.45878 32.3156C7.05753 31.5178 6.71253 30.6872 6.42837 29.8294C6.17347 29.0588 5.45253 28.5384 4.64065 28.5384H2.61097C1.57025 28.5384 0.726593 27.6948 0.726593 26.6541V21.3459C0.726593 20.3052 1.57025 19.4616 2.61097 19.4616H4.64065C5.45253 19.4616 6.17347 18.9413 6.42837 18.1706C6.71253 17.3128 7.05753 16.4822 7.45878 15.6844C7.82441 14.9578 7.68462 14.0794 7.10994 13.5047L5.67275 12.0684C4.93784 11.3325 4.93784 10.1391 5.67275 9.40313L9.4265 5.64938C10.1624 4.91438 11.3559 4.91438 12.0919 5.64938L13.5281 7.08657C14.1028 7.66116 14.9812 7.80094 15.7077 7.43532C16.5057 7.03407 17.3363 6.68907 18.194 6.405C18.9647 6.15 19.4849 5.42907 19.4849 4.61719V2.5875C19.4849 1.54679 20.3286 0.703129 21.3694 0.703129H26.5838C27.5292 0.703129 28.3122 1.3996 28.4474 2.30757C28.4712 2.46704 28.4516 2.63025 28.3933 2.78072L27.6806 4.62413" stroke="white" stroke-width="2" stroke-miterlimit="10" stroke-linecap="round" stroke-linejoin="round"></path><path d="M15.2914 34.9411C17.6758 36.8364 20.6939 37.9686 23.9765 37.9686C24.4587 37.9686 24.9352 37.9443 25.4047 37.8965" stroke="white" stroke-width="2" stroke-miterlimit="10" stroke-linecap="round" stroke-linejoin="round"></path><path d="M25.1915 10.0833C24.7911 10.0488 24.3859 10.0312 23.9765 10.0312C16.2619 10.0312 10.0078 16.2853 10.0078 24C10.0078 27.2469 11.1155 30.2351 12.9738 32.6071" stroke="white" stroke-width="2" stroke-miterlimit="10" stroke-linecap="round" stroke-linejoin="round"></path><path d="M18.3516 24C18.3516 20.8934 20.87 18.375 23.9766 18.375C27.0832 18.375 29.6016 20.8934 29.6016 24C29.6016 27.1066 27.0832 29.625 23.9766 29.625C20.87 29.625 18.3516 27.1066 18.3516 24Z" stroke="white" stroke-width="2" stroke-miterlimit="10" stroke-linecap="round" stroke-linejoin="round"></path><path d="M41.6484 24C41.6484 22.4467 42.9077 21.1875 44.4609 21.1875C46.0142 21.1875 47.2734 22.4467 47.2734 24C47.2734 25.5533 46.0142 26.8125 44.4609 26.8125C42.9077 26.8125 41.6484 25.5533 41.6484 24Z" stroke="white" stroke-width="2" stroke-miterlimit="10" stroke-linecap="round" stroke-linejoin="round"></path><path d="M41.6484 13.3594C41.6484 11.8061 42.9077 10.5469 44.4609 10.5469C46.0142 10.5469 47.2734 11.8061 47.2734 13.3594C47.2734 14.9126 46.0142 16.1719 44.4609 16.1719C42.9077 16.1719 41.6484 14.9126 41.6484 13.3594Z" stroke="white" stroke-width="2" stroke-miterlimit="10" stroke-linecap="round" stroke-linejoin="round"></path><path d="M41.6484 3.51562C41.6484 1.96237 42.9077 0.703125 44.4609 0.703125C46.0142 0.703125 47.2734 1.96237 47.2734 3.51562C47.2734 5.06888 46.0142 6.32812 44.4609 6.32812C42.9077 6.32812 41.6484 5.06888 41.6484 3.51562Z" stroke="white" stroke-width="2" stroke-miterlimit="10" stroke-linecap="round" stroke-linejoin="round"></path><path d="M41.6484 34.6406C41.6484 33.0874 42.9077 31.8281 44.4609 31.8281C46.0142 31.8281 47.2734 33.0874 47.2734 34.6406C47.2734 36.1939 46.0142 37.4531 44.4609 37.4531C42.9077 37.4531 41.6484 36.1939 41.6484 34.6406Z" stroke="white" stroke-width="2" stroke-miterlimit="10" stroke-linecap="round" stroke-linejoin="round"></path><path d="M41.6484 44.4844C41.6484 42.9311 42.9077 41.6719 44.4609 41.6719C46.0142 41.6719 47.2734 42.9311 47.2734 44.4844C47.2734 46.0376 46.0142 47.2969 44.4609 47.2969C42.9077 47.2969 41.6484 46.0376 41.6484 44.4844Z" stroke="white" stroke-width="2" stroke-miterlimit="10" stroke-linecap="round" stroke-linejoin="round"></path><path d="M29.1797 13.3594C29.1797 11.8061 30.4389 10.5469 31.9922 10.5469C33.5454 10.5469 34.8047 11.8061 34.8047 13.3594C34.8047 14.9126 33.5454 16.1719 31.9922 16.1719C30.4389 16.1719 29.1797 14.9126 29.1797 13.3594Z" stroke="white" stroke-width="2" stroke-miterlimit="10" stroke-linecap="round" stroke-linejoin="round"></path><path d="M29.1797 34.6406C29.1797 33.0874 30.4389 31.8281 31.9922 31.8281C33.5454 31.8281 34.8047 33.0874 34.8047 34.6406C34.8047 36.1939 33.5454 37.4531 31.9922 37.4531C30.4389 37.4531 29.1797 36.1939 29.1797 34.6406Z" stroke="white" stroke-width="2" stroke-miterlimit="10" stroke-linecap="round" stroke-linejoin="round"></path><path d="M29.6016 22.5938H34.1953" stroke="white" stroke-width="2" stroke-miterlimit="10" stroke-linecap="round" stroke-linejoin="round"></path><path d="M41.6484 25.4062H29.6016" stroke="white" stroke-width="2" stroke-miterlimit="10" stroke-linecap="round" stroke-linejoin="round"></path><path d="M37.5672 22.5938H41.6484" stroke="white" stroke-width="2" stroke-miterlimit="10" stroke-linecap="round" stroke-linejoin="round"></path><path d="M18.3516 24C18.3516 20.8934 20.87 18.375 23.9766 18.375C27.0832 18.375 29.6016 20.8934 29.6016 24C29.6016 27.1066 27.0832 29.625 23.9766 29.625C20.87 29.625 18.3516 27.1066 18.3516 24Z" stroke="white" stroke-width="2" stroke-miterlimit="10" stroke-linecap="round" stroke-linejoin="round"></path><path d="M41.6484 24C41.6484 22.4467 42.9077 21.1875 44.4609 21.1875C46.0142 21.1875 47.2734 22.4467 47.2734 24C47.2734 25.5533 46.0142 26.8125 44.4609 26.8125C42.9077 26.8125 41.6484 25.5533 41.6484 24Z" stroke="white" stroke-width="2" stroke-miterlimit="10" stroke-linecap="round" stroke-linejoin="round"></path><path d="M41.6484 13.3594C41.6484 11.8061 42.9077 10.5469 44.4609 10.5469C46.0142 10.5469 47.2734 11.8061 47.2734 13.3594C47.2734 14.9126 46.0142 16.1719 44.4609 16.1719C42.9077 16.1719 41.6484 14.9126 41.6484 13.3594Z" stroke="white" stroke-width="2" stroke-miterlimit="10" stroke-linecap="round" stroke-linejoin="round"></path><path d="M41.6484 3.51562C41.6484 1.96237 42.9077 0.703125 44.4609 0.703125C46.0142 0.703125 47.2734 1.96237 47.2734 3.51562C47.2734 5.06888 46.0142 6.32812 44.4609 6.32812C42.9077 6.32812 41.6484 5.06888 41.6484 3.51562Z" stroke="white" stroke-width="2" stroke-miterlimit="10" stroke-linecap="round" stroke-linejoin="round"></path><path d="M41.6484 34.6406C41.6484 33.0874 42.9077 31.8281 44.4609 31.8281C46.0142 31.8281 47.2734 33.0874 47.2734 34.6406C47.2734 36.1939 46.0142 37.4531 44.4609 37.4531C42.9077 37.4531 41.6484 36.1939 41.6484 34.6406Z" stroke="white" stroke-width="2" stroke-miterlimit="10" stroke-linecap="round" stroke-linejoin="round"></path><path d="M41.6484 44.4844C41.6484 42.9311 42.9077 41.6719 44.4609 41.6719C46.0142 41.6719 47.2734 42.9311 47.2734 44.4844C47.2734 46.0376 46.0142 47.2969 44.4609 47.2969C42.9077 47.2969 41.6484 46.0376 41.6484 44.4844Z" stroke="white" stroke-width="2" stroke-miterlimit="10" stroke-linecap="round" stroke-linejoin="round"></path></g></g><defs><clipPath id="clip0_2258_653"><rect width="48" height="48" fill="white"></rect></clipPath></defs></svg>