<svg xmlns="http://www.w3.org/2000/svg" width="44" height="44" viewBox="0 0 44 44" fill="none"><g clip-path="url(#clip0_2011_184)"><path d="M33.825 33.7334H32.3583V36.6667H19.1583V38.1334H32.3583V40.3334C32.3583 41.5483 31.3733 42.5334 30.1583 42.5334H14.025C13.239 42.5323 12.5129 42.1134 12.1183 41.4334L10.8482 42.1667C11.5056 43.2993 12.7155 43.9976 14.025 44.0001H30.1583C32.1825 43.9976 33.8225 42.3576 33.825 40.3334V33.7334Z" fill="#292929"></path><path d="M21.3583 39.6001H22.825V41.0668H21.3583V39.6001Z" fill="#292929"></path><path d="M25.7583 19.8V18.3333H23.5211C23.1555 13.6537 19.438 9.93616 14.7583 9.57057V7.33333H13.2917V9.57057C12.7975 9.60853 12.3073 9.68516 11.825 9.79938V5.86667H23.5583V4.4H11.825V3.66667C11.825 2.45173 12.81 1.46667 14.025 1.46667H30.1583C30.694 1.46667 31.2114 1.66217 31.6132 2.01667L32.5835 0.916667C31.914 0.325488 31.0514 -0.000357778 30.1583 2.94801e-07H14.025C12.0008 0.00250681 10.3608 1.64248 10.3583 3.66667V10.2667C7.05617 11.6499 4.80569 14.7641 4.5289 18.3333H2.29166V19.8H4.53069C4.87658 24.4886 8.60305 28.2176 13.2917 28.5663V30.8H14.7583V28.5663C19.4469 28.2176 23.1734 24.4886 23.5193 19.8H25.7583ZM13.2917 25.6667V27.0997C12.2686 27.0076 11.2732 26.7201 10.3583 26.2532V24.9333C10.3583 22.9084 12.0001 21.2667 14.025 21.2667C16.0499 21.2667 17.6917 22.9084 17.6917 24.9333V26.2532C16.7771 26.7208 15.7813 27.0087 14.7583 27.1018V25.6667H13.2917ZM11.825 17.6C11.825 16.3851 12.81 15.4 14.025 15.4C15.2399 15.4 16.225 16.3851 16.225 17.6C16.225 18.8149 15.2399 19.8 14.025 19.8C12.81 19.8 11.825 18.8149 11.825 17.6ZM19.4025 25.0801C19.3234 25.1532 19.2389 25.2119 19.1583 25.2796V24.9333C19.1565 23.0176 18.088 21.2624 16.3872 20.3808C17.5653 19.3886 17.9974 17.7658 17.4693 16.3192C16.9411 14.8722 15.5651 13.9097 14.025 13.9097C12.4849 13.9097 11.1088 14.8722 10.5807 16.3192C10.0525 17.7658 10.4847 19.3886 11.6628 20.3808C9.96194 21.2624 8.89345 23.0176 8.89166 24.9333V25.2832C8.81037 25.2166 8.72587 25.1539 8.64745 25.0837C7.12779 23.7209 6.18069 21.8331 5.99735 19.8H7.42499V18.3333H5.99556C6.35399 14.4618 9.42017 11.3957 13.2917 11.0372V12.4667H14.7583V11.0372C18.6298 11.3957 21.696 14.4618 22.0544 18.3333H20.625V19.8H22.0526C21.8693 21.8331 20.9222 23.7209 19.4025 25.0837V25.0801Z" fill="#292929"></path><path d="M41.8917 13.2C42.2966 13.2 42.625 12.8717 42.625 12.4667V3.66668C42.625 3.2617 42.2966 2.93335 41.8917 2.93335H25.7583C25.3533 2.93335 25.025 3.2617 25.025 3.66668V12.4667C25.025 12.8717 25.3533 13.2 25.7583 13.2H41.8917ZM26.4917 4.40002H41.1583V11.7334H26.4917V4.40002Z" fill="#292929"></path><path d="M27.9583 5.8667H30.8917V7.33337H27.9583V5.8667Z" fill="#292929"></path><path d="M32.3583 5.8667H39.6917V7.33337H32.3583V5.8667Z" fill="#292929"></path><path d="M27.9583 8.80005H39.6917V10.2667H27.9583V8.80005Z" fill="#292929"></path><path d="M41.7621 14.6667C41.1942 14.6678 40.6463 14.8762 40.222 15.2533L33.825 20.8929V14.6667H32.3583V22.0001H32.5703L28.3984 25.6814C25.6842 25.8368 23.5616 28.0812 23.5583 30.8001V32.0938C23.5612 32.8214 23.1498 33.4878 22.4974 33.8104C22.1927 33.9622 22.0326 34.3038 22.1107 34.635C22.1887 34.9663 22.4845 35.2004 22.825 35.2001H27.9583C30.6772 35.1969 32.9216 33.0742 33.077 30.36L43.5095 18.5372C44.115 17.8504 44.2621 16.8725 43.8851 16.0378C43.5084 15.2031 42.6777 14.6667 41.7621 14.6667ZM27.9583 33.7334H24.6046C24.8814 33.2314 25.0261 32.6671 25.025 32.0938V30.8001C25.0275 28.8898 26.4942 27.3003 28.3984 27.1452L31.6132 30.36C31.4585 32.2642 29.8687 33.7313 27.9583 33.7334ZM42.4095 17.5671L32.3254 28.9961L29.7623 26.4337L41.1913 16.349C41.5333 16.0489 42.0492 16.0657 42.3711 16.3873C42.6927 16.7092 42.7095 17.2252 42.4095 17.5671Z" fill="#519FDF"></path><path d="M0.825008 40.3333H16.9583C17.3633 40.3333 17.6917 40.0049 17.6917 39.5999V33.7333C17.6917 33.3283 17.3633 32.9999 16.9583 32.9999H11.825V29.3333H10.3583V32.9999H0.825008C0.420028 32.9999 0.0916748 33.3283 0.0916748 33.7333V39.5999C0.0916748 40.0049 0.420028 40.3333 0.825008 40.3333ZM1.55834 34.4666H16.225V38.8666H1.55834V34.4666Z" fill="#292929"></path><path d="M3.02499 35.9333H6.69166V37.4H3.02499V35.9333Z" fill="#292929"></path><path d="M8.15833 35.9333H14.7583V37.4H8.15833V35.9333Z" fill="#292929"></path><path d="M0.825008 10.2667H8.15834C8.56332 10.2667 8.89167 9.93833 8.89167 9.53335V3.66668C8.89167 3.2617 8.56332 2.93335 8.15834 2.93335H0.825008C0.420028 2.93335 0.0916748 3.2617 0.0916748 3.66668V9.53335C0.0916748 9.93833 0.420028 10.2667 0.825008 10.2667ZM1.55834 4.40002H7.42501V8.80002H1.55834V4.40002Z" fill="#292929"></path><path d="M3.02499 5.8667H5.95833V7.33337H3.02499V5.8667Z" fill="#292929"></path></g><defs><clipPath id="clip0_2011_184"><rect width="44" height="44" fill="white"></rect></clipPath></defs></svg>