<svg width="106" height="273" viewBox="0 0 106 273" fill="none" xmlns="http://www.w3.org/2000/svg">
<path d="M0.833305 3.5C0.833305 4.97276 2.02721 6.16667 3.49997 6.16667C4.97273 6.16667 6.16664 4.97276 6.16664 3.5C6.16664 2.02724 4.97273 0.833333 3.49997 0.833333C2.02721 0.833333 0.833305 2.02724 0.833305 3.5ZM3.49997 143L3.99792 143.045L3.99997 143.023V143H3.49997ZM64 148.5V149H64.0249L64.0498 148.998L64 148.5ZM69 152.5H68.5L68.5 152.504L69 152.5ZM70 269.5L69.5 269.504L69.5043 270H70V269.5ZM99.8333 269.5C99.8333 270.973 101.027 272.167 102.5 272.167C103.973 272.167 105.167 270.973 105.167 269.5C105.167 268.027 103.973 266.833 102.5 266.833C101.027 266.833 99.8333 268.027 99.8333 269.5ZM2.99997 3.5V143H3.99997V3.5H2.99997ZM3.00202 142.955C2.90995 143.968 3.1275 145.474 4.08939 146.74C5.06949 148.03 6.76975 149 9.49997 149V148C7.0302 148 5.64712 147.137 4.88555 146.135C4.10578 145.109 3.92333 143.866 3.99792 143.045L3.00202 142.955ZM9.49997 149H64V148H9.49997V149ZM64.0498 148.998C64.8161 148.921 65.9571 149.018 66.8847 149.526C67.7742 150.013 68.5 150.891 68.5 152.5H69.5C69.5 150.508 68.5592 149.303 67.3653 148.649C66.2096 148.016 64.8505 147.912 63.9502 148.002L64.0498 148.998ZM68.5 152.504L69.5 269.504L70.5 269.496L69.5 152.496L68.5 152.504ZM70 270H102.5V269H70V270Z" fill="#38DBFF"/>
</svg>
